<svg width="13" height="12" viewBox="0 0 13 12" fill="none" xmlns="http://www.w3.org/2000/svg">
<path d="M7.078 0.0259995C8.114 0.0259995 9.01467 0.222 9.78 0.613999C10.5453 1.006 11.1333 1.55667 11.544 2.266C11.9547 2.966 12.16 3.778 12.16 4.702C12.16 5.43933 12.0387 6.14867 11.796 6.83C11.5533 7.502 11.1987 8.048 10.732 8.468C10.2747 8.888 9.738 9.098 9.122 9.098C8.65533 9.098 8.296 8.98133 8.044 8.748C7.792 8.51467 7.64733 8.19733 7.61 7.796C7.32067 8.19733 6.952 8.51467 6.504 8.748C6.06533 8.98133 5.59867 9.098 5.104 9.098C4.39467 9.098 3.83467 8.88333 3.424 8.454C3.02267 8.01533 2.822 7.42733 2.822 6.69C2.822 5.99 2.96667 5.33667 3.256 4.73C3.55467 4.12333 3.96533 3.638 4.488 3.274C5.01067 2.90067 5.60333 2.714 6.266 2.714C7.15267 2.714 7.75 3.05 8.058 3.722L8.212 2.854H9.318L8.618 6.9C8.59 7.07733 8.576 7.24067 8.576 7.39C8.576 7.95 8.82333 8.23 9.318 8.23C9.69133 8.23 10.0133 8.05267 10.284 7.698C10.564 7.34333 10.774 6.9 10.914 6.368C11.054 5.82667 11.124 5.29467 11.124 4.772C11.124 3.54933 10.7553 2.602 10.018 1.93C9.29 1.258 8.25867 0.922 6.924 0.922C5.81333 0.922 4.81 1.19267 3.914 1.734C3.02733 2.266 2.332 2.99867 1.828 3.932C1.324 4.86533 1.072 5.89667 1.072 7.026C1.06267 8.258 1.43133 9.20533 2.178 9.868C2.92467 10.54 3.96067 10.876 5.286 10.876C6.16333 10.876 6.938 10.7173 7.61 10.4L7.778 11.268C6.94733 11.6133 6.03267 11.786 5.034 11.786C4.03533 11.786 3.15333 11.5947 2.388 11.212C1.632 10.8387 1.044 10.2973 0.624 9.588C0.213333 8.888 0.00800006 8.07133 0.00800006 7.138C0.00800006 5.822 0.311333 4.62267 0.918 3.54C1.52467 2.448 2.36467 1.58933 3.438 0.964C4.52067 0.338666 5.734 0.0259995 7.078 0.0259995ZM5.482 8.104C5.902 8.104 6.28933 7.98267 6.644 7.74C6.99867 7.488 7.27867 7.152 7.484 6.732C7.68933 6.30267 7.792 5.836 7.792 5.332C7.792 4.84667 7.65667 4.45467 7.386 4.156C7.12467 3.848 6.75133 3.694 6.266 3.694C5.818 3.694 5.42133 3.82933 5.076 4.1C4.74 4.36133 4.47867 4.71133 4.292 5.15C4.10533 5.57933 4.012 6.02733 4.012 6.494C4.012 6.98867 4.138 7.38067 4.39 7.67C4.642 7.95933 5.006 8.104 5.482 8.104Z" fill="#909791"/>
</svg>
