<svg width="50" height="50" viewBox="0 0 50 50" fill="none" xmlns="http://www.w3.org/2000/svg">
<circle cx="25" cy="25" r="24.5" fill="#161616" stroke="#E6D32D"/>
<circle cx="25" cy="25" r="19" fill="#302E19"/>
<path d="M26.38 23.912V18.9604C27.5274 19.1212 28.5399 19.5995 29.105 20.2669C29.5454 20.7873 30.3336 20.8599 30.8655 20.4293C31.3977 19.9988 31.472 19.2282 31.0316 18.7082C30.0034 17.4937 28.2886 16.6853 26.38 16.4978V15.2225C26.38 14.5475 25.82 14 25.1295 14C24.4389 14 23.8789 14.5475 23.8789 15.2225V16.6097C22.9665 16.7847 22.1114 17.1056 21.372 17.5591C19.9761 18.4152 19.1391 19.6404 19.0152 21.0089C18.9163 22.1011 19.3028 23.1956 20.1039 24.0908C21.0035 25.0959 22.3396 25.7939 23.8789 26.0865V31.0423C22.7777 30.8658 21.8136 30.3967 21.2681 29.7503C20.8284 29.2295 20.0402 29.1554 19.5076 29.5852C18.9749 30.015 18.8991 30.7856 19.3388 31.3063C20.3454 32.4994 22.0133 33.3021 23.8789 33.5106V34.7775C23.8789 35.4525 24.4389 36 25.1295 36C25.82 36 26.38 35.4525 26.38 34.7775V33.4319C27.3359 33.2623 28.2327 32.9334 29.003 32.4608C30.3989 31.6047 31.2359 30.3795 31.3598 29.011C31.4587 27.9188 31.0722 26.8242 30.2711 25.9291C29.3488 24.8988 27.9682 24.1908 26.38 23.912ZM21.986 22.4812C21.6284 22.0816 21.467 21.6591 21.5065 21.2251C21.5596 20.6368 21.984 20.0706 22.7015 19.6305C23.0489 19.4173 23.4487 19.248 23.8789 19.1258V23.5735C23.0935 23.3515 22.4264 22.9733 21.986 22.4812ZM28.8685 28.7952C28.8154 29.3835 28.391 29.9497 27.6735 30.3898C27.2952 30.6221 26.8544 30.8024 26.38 30.9262V26.4154C27.2159 26.6321 27.9271 27.0229 28.389 27.539C28.7462 27.9386 28.9076 28.3615 28.8685 28.7952Z" fill="#E6D32D"/>
</svg>
