<svg width="63" height="63" viewBox="0 0 63 63" fill="none" xmlns="http://www.w3.org/2000/svg">
<g opacity="0.4" filter="url(#filter0_d_421_2840)">
<circle cx="31.5" cy="27.5" r="27.5" fill="#21C143"/>
</g>
<g filter="url(#filter1_d_421_2840)">
<circle cx="31.5" cy="27.5" r="24.5" fill="#21C143"/>
</g>
<g filter="url(#filter2_d_421_2840)">
<path d="M41.4538 17H22.5462C21.6922 17 21 17.6978 21 18.5587C21 19.4195 21.6922 20.1174 22.5462 20.1174H41.4538C42.3078 20.1174 43 19.4195 43 18.5587C43 17.6978 42.3077 17 41.4538 17ZM33.1377 21.7321C33.1016 21.6957 33.0636 21.6612 33.0241 21.6285C33.0065 21.614 32.988 21.6014 32.97 21.5878C32.9477 21.5709 32.9258 21.5535 32.9026 21.5378C32.8808 21.5231 32.8582 21.5104 32.8359 21.497C32.8149 21.4843 32.7944 21.4711 32.7728 21.4594C32.75 21.4471 32.7265 21.4367 32.7032 21.4256C32.6808 21.4149 32.6587 21.4037 32.6357 21.3941C32.613 21.3846 32.5899 21.377 32.5669 21.3687C32.5423 21.3597 32.518 21.3502 32.4929 21.3426C32.4698 21.3356 32.4464 21.3304 32.4232 21.3245C32.3975 21.318 32.3723 21.3108 32.3462 21.3055C32.3193 21.3002 32.2921 21.297 32.265 21.2931C32.2422 21.2898 32.2198 21.2854 32.1966 21.2831C32.146 21.2781 32.0953 21.2754 32.0445 21.2754C32.0444 21.2754 32.0442 21.2754 32.0441 21.2754C32.0368 21.2754 32.0294 21.2763 32.022 21.2764C31.619 21.2707 31.2141 21.4219 30.9066 21.7319L23.0874 29.6144C22.4836 30.2232 22.4836 31.21 23.0874 31.8188C23.3893 32.1232 23.785 32.2754 24.1807 32.2754C24.5764 32.2754 24.9721 32.1232 25.274 31.8188L30.498 26.5525V37.4413C30.498 38.3022 31.1902 39 32.0441 39C32.8981 39 33.5903 38.3022 33.5903 37.4413V26.5971L38.7701 31.8188C39.072 32.1232 39.4678 32.2754 39.8634 32.2754C40.2591 32.2754 40.6548 32.1232 40.9567 31.8188C41.5606 31.21 41.5606 30.2232 40.9567 29.6144L33.1377 21.7321Z" fill="white"/>
</g>
<defs>
<filter id="filter0_d_421_2840" x="0" y="0" width="63" height="63" filterUnits="userSpaceOnUse" color-interpolation-filters="sRGB">
<feFlood flood-opacity="0" result="BackgroundImageFix"/>
<feColorMatrix in="SourceAlpha" type="matrix" values="0 0 0 0 0 0 0 0 0 0 0 0 0 0 0 0 0 0 127 0" result="hardAlpha"/>
<feOffset dy="4"/>
<feGaussianBlur stdDeviation="2"/>
<feComposite in2="hardAlpha" operator="out"/>
<feColorMatrix type="matrix" values="0 0 0 0 0 0 0 0 0 0 0 0 0 0 0 0 0 0 0.25 0"/>
<feBlend mode="normal" in2="BackgroundImageFix" result="effect1_dropShadow_421_2840"/>
<feBlend mode="normal" in="SourceGraphic" in2="effect1_dropShadow_421_2840" result="shape"/>
</filter>
<filter id="filter1_d_421_2840" x="3" y="3" width="57" height="57" filterUnits="userSpaceOnUse" color-interpolation-filters="sRGB">
<feFlood flood-opacity="0" result="BackgroundImageFix"/>
<feColorMatrix in="SourceAlpha" type="matrix" values="0 0 0 0 0 0 0 0 0 0 0 0 0 0 0 0 0 0 127 0" result="hardAlpha"/>
<feOffset dy="4"/>
<feGaussianBlur stdDeviation="2"/>
<feComposite in2="hardAlpha" operator="out"/>
<feColorMatrix type="matrix" values="0 0 0 0 0 0 0 0 0 0 0 0 0 0 0 0 0 0 0.25 0"/>
<feBlend mode="normal" in2="BackgroundImageFix" result="effect1_dropShadow_421_2840"/>
<feBlend mode="normal" in="SourceGraphic" in2="effect1_dropShadow_421_2840" result="shape"/>
</filter>
<filter id="filter2_d_421_2840" x="21" y="17" width="22" height="23" filterUnits="userSpaceOnUse" color-interpolation-filters="sRGB">
<feFlood flood-opacity="0" result="BackgroundImageFix"/>
<feColorMatrix in="SourceAlpha" type="matrix" values="0 0 0 0 0 0 0 0 0 0 0 0 0 0 0 0 0 0 127 0" result="hardAlpha"/>
<feOffset dy="1"/>
<feComposite in2="hardAlpha" operator="out"/>
<feColorMatrix type="matrix" values="0 0 0 0 0.0761458 0 0 0 0 0.5375 0 0 0 0 0.174184 0 0 0 1 0"/>
<feBlend mode="normal" in2="BackgroundImageFix" result="effect1_dropShadow_421_2840"/>
<feBlend mode="normal" in="SourceGraphic" in2="effect1_dropShadow_421_2840" result="shape"/>
</filter>
</defs>
</svg>
