<svg width="24" height="24" viewBox="0 0 24 24" fill="none" xmlns="http://www.w3.org/2000/svg">
<path d="M11.8333 2.38504L14.1095 4.56627C14.4624 4.90449 14.927 5.10174 15.4155 5.12075L18.5281 5.24194L18.6476 8.51891C18.6647 8.98663 18.8452 9.43356 19.1578 9.78188L21.323 12.1944L19.1578 14.607C18.8452 14.9553 18.6647 15.4023 18.6476 15.87L18.5281 19.1469L15.4155 19.2681C14.927 19.2872 14.4624 19.4844 14.1095 19.8226L11.8333 22.0039L9.55716 19.8226C9.20423 19.4844 8.73965 19.2872 8.25119 19.2681L5.13855 19.1469L5.01907 15.87C5.00201 15.4023 4.82147 14.9553 4.50886 14.607L2.34367 12.1944L4.50886 9.78188C4.82147 9.43356 5.00201 8.98663 5.01907 8.51891L5.13855 5.24194L8.25119 5.12075C8.73965 5.10174 9.20423 4.90449 9.55716 4.56628L8.86527 3.84427L9.55716 4.56627L11.8333 2.38504Z" stroke="white" stroke-width="2"/>
<path d="M12.0556 6.77777L13.4581 9.90283L16.8637 10.2711L14.325 12.5707L15.0271 15.9234L12.0556 14.2196L9.08397 15.9234L9.78612 12.5707L7.24744 10.2711L10.653 9.90283L12.0556 6.77777Z" fill="white"/>
</svg>
