<svg width="24" height="24" viewBox="0 0 24 24" fill="none" xmlns="http://www.w3.org/2000/svg">
<path d="M11.1414 1.66303C11.5282 1.29237 12.1384 1.29237 12.5252 1.66303L14.8014 3.84427C14.9779 4.01338 15.2102 4.112 15.4544 4.12151L18.567 4.2427C19.0897 4.26305 19.5084 4.68277 19.5274 5.2055L19.6469 8.48247C19.6555 8.71633 19.7457 8.9398 19.902 9.11396L22.0672 11.5265C22.4083 11.9065 22.4083 12.4824 22.0672 12.8624L19.902 15.2749C19.7457 15.4491 19.6555 15.6726 19.6469 15.9064L19.5274 19.1834C19.5084 19.7061 19.0897 20.1258 18.567 20.1462L15.4544 20.2674C15.2102 20.2769 14.9779 20.3755 14.8014 20.5446L12.5252 22.7259C12.1384 23.0965 11.5282 23.0965 11.1414 22.7259L8.86527 20.5446C8.68881 20.3755 8.45651 20.2769 8.21229 20.2674L5.09965 20.1462C4.57697 20.1258 4.15828 19.7061 4.13922 19.1834L4.01973 15.9064C4.0112 15.6726 3.92093 15.4491 3.76463 15.2749L1.59944 12.8624C1.25841 12.4824 1.25841 11.9065 1.59944 11.5265L3.76463 9.11396C3.92093 8.9398 4.0112 8.71633 4.01973 8.48248L4.13922 5.2055C4.15828 4.68277 4.57697 4.26305 5.09965 4.2427L8.21229 4.12151C8.45652 4.112 8.6888 4.01338 8.86527 3.84427L11.1414 1.66303Z" stroke="white" stroke-width="1.5"/>
<path d="M12 6L13.6646 9.70886L17.7063 10.1459L14.6934 12.8751L15.5267 16.8541L12 14.832L8.47329 16.8541L9.30661 12.8751L6.29366 10.1459L10.3354 9.70886L12 6Z" fill="white"/>
</svg>
