<svg width="22" height="23" viewBox="0 0 22 23" fill="none" xmlns="http://www.w3.org/2000/svg">
<path d="M10.1414 0.663033C10.5282 0.292371 11.1384 0.29237 11.5252 0.663033L13.8014 2.84427C13.9779 3.01338 14.2102 3.112 14.4544 3.12151L17.567 3.2427C18.0897 3.26305 18.5084 3.68277 18.5274 4.2055L18.6469 7.48247C18.6555 7.71633 18.7457 7.9398 18.902 8.11396L21.0672 10.5265C21.4083 10.9065 21.4083 11.4824 21.0672 11.8624L18.902 14.2749C18.7457 14.4491 18.6555 14.6726 18.6469 14.9064L18.5274 18.1834C18.5084 18.7061 18.0897 19.1258 17.567 19.1462L14.4544 19.2674C14.2102 19.2769 13.9779 19.3755 13.8014 19.5446L11.5252 21.7259C11.1384 22.0965 10.5282 22.0965 10.1414 21.7259L7.86527 19.5446C7.68881 19.3755 7.45651 19.2769 7.21229 19.2674L4.09965 19.1462C3.57697 19.1258 3.15828 18.7061 3.13922 18.1834L3.01973 14.9064C3.0112 14.6726 2.92093 14.4491 2.76463 14.2749L0.599436 11.8624C0.258412 11.4824 0.258411 10.9065 0.599436 10.5265L2.76463 8.11396C2.92093 7.9398 3.0112 7.71633 3.01973 7.48248L3.13922 4.2055C3.15828 3.68277 3.57697 3.26305 4.09965 3.2427L7.21229 3.12151C7.45652 3.112 7.6888 3.01338 7.86527 2.84427L10.1414 0.663033Z" fill="#E6D32D"/>
<path d="M11 5L12.6646 8.70886L16.7063 9.1459L13.6934 11.8751L14.5267 15.8541L11 13.832L7.47329 15.8541L8.30661 11.8751L5.29366 9.1459L9.33539 8.70886L11 5Z" fill="#292929"/>
</svg>
