<svg width="21" height="20" viewBox="0 0 21 20" fill="none" xmlns="http://www.w3.org/2000/svg">
<path fill-rule="evenodd" clip-rule="evenodd" d="M10.1374 0C4.52263 0 0 4.49963 0 10.0007L0.00135328 9.99932C0.00135328 15.25 4.1356 19.5832 9.44313 20H18.6982L17.7874 16.5843C19.3844 14.7616 20.2705 12.424 20.2828 10.0007C20.2828 4.50098 15.7534 0 10.1374 0ZM16.4355 18.2489L9.50403 17.9985H9.52027C5.07612 17.6643 1.89594 14.3339 1.89594 10.0007C1.89594 5.41717 5.39279 2.00287 10.1455 2.00287C14.8968 2.00287 18.4004 5.41717 18.4004 10.0007C18.4207 12.0225 17.7793 13.7709 16.4355 15.2149C16.0376 15.6344 15.7751 16.4125 15.9321 16.9741L16.4355 18.2489Z" fill="white"/>
</svg>
