<svg width="40" height="40" viewBox="0 0 40 40" fill="none" xmlns="http://www.w3.org/2000/svg">
<path d="M32.7584 14.2317C30.8067 9.10289 25.8338 5.45459 20.0086 5.45459C14.1834 5.45459 9.21044 9.09865 7.25876 14.2275C3.58979 15.1905 0.888125 18.5291 0.909303 22.4913C0.934999 26.9202 4.38665 30.5218 8.73317 30.9079C8.93345 30.9248 9.1039 30.7679 9.1039 30.5685V28.0062C9.1039 27.8365 8.97607 27.6923 8.80561 27.6711C7.65506 27.5268 6.56843 27.0263 5.73322 26.2075C4.71051 25.2106 4.14802 23.87 4.14802 22.4489C4.14802 21.2611 4.53579 20.1411 5.26448 19.2078C5.97611 18.3 6.97752 17.6425 8.08119 17.354L9.69623 16.9298L10.2885 15.3729C10.655 14.4057 11.1664 13.4978 11.8098 12.6791C12.4448 11.8646 13.199 11.1519 14.0427 10.558C15.7941 9.33197 17.8566 8.68292 20.0086 8.68292C22.1605 8.68292 24.223 9.33197 25.9744 10.5622C26.8224 11.1561 27.5724 11.8688 28.2073 12.6833C28.8508 13.5021 29.3621 14.4099 29.7286 15.3771L30.3166 16.9298L31.9274 17.354C34.237 17.9649 35.8521 20.0563 35.8521 22.4447C35.8521 23.87 35.2896 25.2063 34.2669 26.2033C33.4359 27.0178 32.3535 27.5226 31.203 27.6668C31.0325 27.688 30.909 27.8323 30.909 28.002V30.5685C30.909 30.7679 31.0837 30.9248 31.284 30.9079C35.6177 30.5176 39.0608 26.9202 39.0908 22.4998C39.1162 18.5376 36.4188 15.199 32.7584 14.2317Z" fill="white"/>
<path d="M26.2693 20.9017C26.2993 20.9338 26.323 20.9719 26.3392 21.0138C26.3554 21.0557 26.3637 21.1006 26.3637 21.146C26.3637 21.1914 26.3554 21.2363 26.3392 21.2782C26.323 21.3201 26.2993 21.3582 26.2693 21.3903L22.0519 25.909L26.2693 30.4277C26.2993 30.4598 26.323 30.4979 26.3392 30.5398C26.3554 30.5817 26.3637 30.6266 26.3637 30.672C26.3637 30.7174 26.3554 30.7623 26.3392 30.8042C26.323 30.8461 26.2993 30.8842 26.2693 30.9163L24.6736 32.626C24.6436 32.6581 24.6081 32.6835 24.569 32.7009C24.5298 32.7182 24.4879 32.7272 24.4456 32.7272C24.4032 32.7272 24.3613 32.7182 24.3222 32.7009C24.2831 32.6835 24.2475 32.6581 24.2176 32.626L20.0001 28.1073L15.7826 32.626C15.7527 32.6581 15.7171 32.6835 15.678 32.7009C15.6389 32.7182 15.597 32.7272 15.5546 32.7272C15.5123 32.7272 15.4704 32.7182 15.4313 32.7009C15.3922 32.6835 15.3566 32.6581 15.3267 32.626L13.7309 30.9163C13.701 30.8842 13.6772 30.8461 13.661 30.8042C13.6448 30.7623 13.6365 30.7174 13.6365 30.672C13.6365 30.6266 13.6448 30.5817 13.661 30.5398C13.6772 30.4979 13.701 30.4598 13.7309 30.4277L17.9484 25.909L13.7309 21.3903C13.701 21.3582 13.6772 21.3201 13.661 21.2782C13.6448 21.2363 13.6365 21.1914 13.6365 21.146C13.6365 21.1006 13.6448 21.0557 13.661 21.0138C13.6772 20.9719 13.701 20.9338 13.7309 20.9017L15.3267 19.192C15.3566 19.1599 15.3922 19.1345 15.4313 19.1171C15.4704 19.0998 15.5123 19.0908 15.5546 19.0908C15.597 19.0908 15.6389 19.0998 15.678 19.1171C15.7171 19.1345 15.7527 19.1599 15.7826 19.192L20.0001 23.7107L24.2176 19.192C24.2475 19.1599 24.2831 19.1345 24.3222 19.1171C24.3613 19.0998 24.4032 19.0908 24.4456 19.0908C24.4879 19.0908 24.5298 19.0998 24.569 19.1171C24.6081 19.1345 24.6436 19.1599 24.6736 19.192L26.2693 20.9017Z" fill="white"/>
</svg>
