<svg width="14" height="14" viewBox="0 0 14 14" fill="none" xmlns="http://www.w3.org/2000/svg">
<path d="M6.22222 0.777778V3.88889C6.22222 4.09517 6.14028 4.293 5.99442 4.43886C5.84855 4.58472 5.65072 4.66667 5.44444 4.66667H0.777778C0.571498 4.66667 0.373668 4.58472 0.227806 4.43886C0.0819443 4.293 0 4.09517 0 3.88889V0.777778C0 0.571498 0.0819443 0.373668 0.227806 0.227806C0.373668 0.0819443 0.571498 0 0.777778 0H5.44444C5.65072 4.83468e-09 5.84855 0.0819443 5.99442 0.227806C6.14028 0.373668 6.22222 0.571498 6.22222 0.777778ZM5.44444 6.22222H0.777778C0.571498 6.22222 0.373668 6.30417 0.227806 6.45003C0.0819443 6.59589 0 6.79372 0 7V13.2222C0 13.4285 0.0819443 13.6263 0.227806 13.7722C0.373668 13.9181 0.571498 14 0.777778 14H5.44444C5.65072 14 5.84855 13.9181 5.99442 13.7722C6.14028 13.6263 6.22222 13.4285 6.22222 13.2222V7C6.22222 6.79372 6.14028 6.59589 5.99442 6.45003C5.84855 6.30417 5.65072 6.22222 5.44444 6.22222ZM13.2222 9.33333H8.55556C8.34928 9.33333 8.15145 9.41528 8.00558 9.56114C7.85972 9.707 7.77778 9.90483 7.77778 10.1111V13.2222C7.77778 13.4285 7.85972 13.6263 8.00558 13.7722C8.15145 13.9181 8.34928 14 8.55556 14H13.2222C13.4285 14 13.6263 13.9181 13.7722 13.7722C13.9181 13.6263 14 13.4285 14 13.2222V10.1111C14 9.90483 13.9181 9.707 13.7722 9.56114C13.6263 9.41528 13.4285 9.33333 13.2222 9.33333ZM13.2222 0H8.55556C8.34928 4.83468e-09 8.15145 0.0819443 8.00558 0.227806C7.85972 0.373668 7.77778 0.571498 7.77778 0.777778V7C7.77778 7.20628 7.85972 7.40411 8.00558 7.54997C8.15145 7.69583 8.34928 7.77778 8.55556 7.77778H13.2222C13.4285 7.77778 13.6263 7.69583 13.7722 7.54997C13.9181 7.40411 14 7.20628 14 7V0.777778C14 0.571498 13.9181 0.373668 13.7722 0.227806C13.6263 0.0819443 13.4285 0 13.2222 0Z" fill="white"/>
</svg>
