<svg width="70" height="70" viewBox="0 0 70 70" fill="none" xmlns="http://www.w3.org/2000/svg">
<path d="M59.7488 10.2513C53.1381 3.64067 44.349 0 35 0C25.6513 0 16.8619 3.64059 10.2513 10.2512C3.64075 16.8619 0 25.6513 0 35C0 44.3488 3.64059 53.1382 10.2512 59.7488C16.8619 66.3593 25.6512 70 35 70C44.3489 70 53.1381 66.3594 59.7487 59.7488C66.3593 53.1381 70 44.3488 70 35C70 25.6513 66.3594 16.8619 59.7488 10.2513ZM36.5323 66.7514V60.942C36.5323 60.0554 35.8134 59.3365 34.9268 59.3365C34.0401 59.3365 33.3212 60.0554 33.3212 60.942V66.7447C17.0794 65.8955 4.02752 52.7986 3.24884 36.5384H8.91766C9.80425 36.5384 10.5232 35.8195 10.5232 34.9328C10.5232 34.0463 9.80433 33.3273 8.91766 33.3273H3.25502C4.0988 17.1293 17.1241 4.10208 33.3214 3.25526V8.92367C33.3214 9.81035 34.0402 10.5292 34.9269 10.5292C35.8135 10.5292 36.5325 9.81043 36.5325 8.92367V3.2486C52.7975 4.02439 65.8989 17.0806 66.7452 33.3274H60.9361C60.0494 33.3274 59.3306 34.0463 59.3306 34.9329C59.3306 35.8196 60.0494 36.5385 60.9361 36.5385H66.7513C65.9702 52.8474 52.8421 65.9734 36.5323 66.7514ZM36.5748 34.3042V15.1178C36.5748 14.2311 35.8559 13.5123 34.9693 13.5123C34.0827 13.5123 33.3637 14.2311 33.3637 15.1178V35.0711C33.3637 35.6868 33.7108 36.2211 34.2197 36.4904L49.2166 51.4872C49.5301 51.8006 49.941 51.9574 50.3519 51.9574C50.7628 51.9574 51.1736 51.8006 51.4872 51.4872C52.1142 50.8602 52.1142 49.8436 51.4872 49.2166L36.5748 34.3042Z" fill="#909791"/>
</svg>
