<svg width="21" height="21" viewBox="0 0 21 21" fill="none" xmlns="http://www.w3.org/2000/svg">
<path fill-rule="evenodd" clip-rule="evenodd" d="M2.38116 4.71771H0.8609C0.632575 4.71771 0.413602 4.6252 0.252152 4.46053C0.0907018 4.29586 0 4.07252 0 3.83965C0 3.60677 0.0907018 3.38343 0.252152 3.21876C0.413602 3.05409 0.632575 2.96158 0.8609 2.96158H6.73543V2.35759C6.73674 1.7323 6.98104 1.13303 7.41478 0.691117C7.84852 0.249202 8.43633 0.00068024 9.04941 1.00419e-05H11.9431C12.2473 -0.000657201 12.5487 0.0597942 12.83 0.177913C13.1113 0.296032 13.367 0.469504 13.5826 0.688426C13.7981 0.907348 13.9693 1.16743 14.0863 1.45383C14.2034 1.74022 14.2639 2.04732 14.2646 2.35759V2.96919H20.1391C20.3674 2.96919 20.5864 3.0617 20.7478 3.22637C20.9093 3.39104 21 3.61438 21 3.84726C21 4.08014 20.9093 4.30348 20.7478 4.46815C20.5864 4.63282 20.3674 4.72533 20.1391 4.72533H18.6188V17.1604C18.6182 18.1785 18.2213 19.1547 17.5155 19.8747C16.8096 20.5946 15.8525 20.9993 14.8543 21H6.14573C5.65083 20.9997 5.16083 20.8999 4.70376 20.7063C4.24668 20.5128 3.83147 20.2292 3.48187 19.872C3.13226 19.5147 2.85511 19.0906 2.66624 18.6241C2.47738 18.1575 2.38051 17.6575 2.38116 17.1528V4.71771ZM8.45972 2.35759V2.96158H12.5403V2.35759C12.54 2.27806 12.5242 2.19938 12.494 2.12606C12.4638 2.05274 12.4197 1.98623 12.3642 1.93035C12.3087 1.87446 12.243 1.83031 12.1707 1.80041C12.0984 1.77052 12.0211 1.75547 11.9431 1.75614H9.0519C8.89527 1.75614 8.74502 1.81943 8.63404 1.93215C8.52305 2.04487 8.46037 2.19785 8.45972 2.35759ZM4.10794 4.73801V17.1731L4.10545 17.1604C4.10381 17.4348 4.15536 17.7069 4.25713 17.961C4.3589 18.2151 4.50888 18.4462 4.69847 18.6409C4.88806 18.8357 5.11351 18.9904 5.36188 19.096C5.61025 19.2017 5.87663 19.2562 6.14573 19.2566H14.8543C15.3956 19.2559 15.9146 19.0361 16.2971 18.6454C16.6797 18.2548 16.8946 17.7252 16.8946 17.1731V4.73801H4.10794ZM11.3533 16.7208C11.1915 16.8996 10.972 17 10.7431 17C10.5143 17 10.2948 16.8996 10.133 16.7208C9.97121 16.542 9.8803 16.2995 9.8803 16.0466V6.95341C9.8803 6.82821 9.90262 6.70423 9.94598 6.58856C9.98934 6.47289 10.0529 6.36778 10.133 6.27925C10.2131 6.19072 10.3083 6.12049 10.4129 6.07258C10.5176 6.02467 10.6298 6 10.7431 6C10.8565 6 10.9687 6.02467 11.0733 6.07258C11.178 6.12049 11.2731 6.19072 11.3533 6.27925C11.4334 6.36778 11.4969 6.47289 11.5403 6.58856C11.5837 6.70423 11.606 6.82821 11.606 6.95341V16.0466C11.606 16.2995 11.5151 16.542 11.3533 16.7208ZM7.47385 15.649C7.31164 15.8278 7.09191 15.9281 6.86284 15.9281C6.6342 15.9274 6.41512 15.8267 6.25345 15.6481C6.09178 15.4694 6.00066 15.2273 6 14.9747V8.01153C6.01188 7.76717 6.1081 7.53715 6.26885 7.36883C6.42959 7.2005 6.64263 7.10668 6.86409 7.10668C7.08555 7.10668 7.29859 7.2005 7.45933 7.36883C7.62008 7.53715 7.7163 7.76717 7.72818 8.01153V14.9747C7.72752 15.2278 7.63606 15.4703 7.47385 15.649ZM14.7473 15.6489C14.5855 15.8277 14.366 15.9281 14.1372 15.9281C13.9083 15.9281 13.6888 15.8277 13.527 15.6489C13.3652 15.4701 13.2743 15.2276 13.2743 14.9747V8.01153C13.2743 7.75867 13.3652 7.51617 13.527 7.33737C13.6888 7.15857 13.9083 7.05812 14.1372 7.05812C14.366 7.05812 14.5855 7.15857 14.7473 7.33737C14.9091 7.51617 15 7.75867 15 8.01153V14.9747C15 15.2276 14.9091 15.4701 14.7473 15.6489Z" fill="white"/>
</svg>
