<svg width="15" height="18" viewBox="0 0 15 18" fill="none" xmlns="http://www.w3.org/2000/svg">
<path d="M15 2.25V3.15C15 3.26935 14.9506 3.38381 14.8627 3.4682C14.7748 3.55259 14.6556 3.6 14.5313 3.6H0.46875C0.34443 3.6 0.225201 3.55259 0.137294 3.4682C0.0493859 3.38381 0 3.26935 0 3.15V2.25C0 2.13065 0.0493859 2.01619 0.137294 1.9318C0.225201 1.84741 0.34443 1.8 0.46875 1.8H4.6875V0.9C4.6875 0.78181 4.71175 0.664778 4.75886 0.555585C4.80598 0.446392 4.87503 0.347176 4.96209 0.263604C5.04914 0.180031 5.15249 0.113738 5.26623 0.0685083C5.37998 0.0232791 5.50189 0 5.625 0H9.375C9.62364 0 9.8621 0.094821 10.0379 0.263604C10.2137 0.432386 10.3125 0.661305 10.3125 0.9V1.8H14.5313C14.6556 1.8 14.7748 1.84741 14.8627 1.9318C14.9506 2.01619 15 2.13065 15 2.25ZM1.75313 16.326C1.7864 16.7812 1.99854 17.2073 2.34663 17.5181C2.69472 17.8289 3.15277 18.0011 3.62813 18H11.3906C11.866 18.0011 12.324 17.8289 12.6721 17.5181C13.0202 17.2073 13.2324 16.7812 13.2656 16.326L14.0625 5.4H0.9375L1.75313 16.326Z" fill="white"/>
</svg>
