<svg width="19" height="19" viewBox="0 0 19 19" fill="none" xmlns="http://www.w3.org/2000/svg">
<path fill-rule="evenodd" clip-rule="evenodd" d="M0 9.49057C0 4.24919 4.24919 0 9.49057 0C14.732 0 18.9811 4.24919 18.9811 9.49057C18.9811 14.732 14.732 18.9811 9.49057 18.9811C4.24919 18.9811 0 14.732 0 9.49057ZM9.49044 1.72573C6.71626 1.72573 4.15282 3.20574 2.76574 5.60824C1.37865 8.01074 1.37865 10.9707 2.76574 13.3733C4.15282 15.7758 6.71626 17.2558 9.49044 17.2558C13.7789 17.2558 17.2554 13.7792 17.2554 9.49074C17.2554 5.20225 13.7789 1.72573 9.49044 1.72573ZM11.0375 7.58652C10.8757 7.74833 10.7848 7.96778 10.7848 8.1966C10.7848 8.6731 11.1711 9.05938 11.6476 9.05938H13.3732C13.8497 9.05938 14.2359 8.6731 14.2359 8.1966C14.2359 7.7201 13.8497 7.33382 13.3732 7.33382H11.6476C11.4188 7.33382 11.1993 7.42472 11.0375 7.58652ZM5.6451 12.1159C5.98201 11.7791 6.52815 11.7791 6.86507 12.1159C7.56133 12.8123 8.50574 13.2036 9.49051 13.2036C10.4753 13.2036 11.4197 12.8123 12.1159 12.1159C12.4545 11.7889 12.9926 11.7936 13.3254 12.1264C13.6582 12.4592 13.6629 12.9973 13.3359 13.3359C12.3161 14.3558 10.9328 14.9287 9.49051 14.9287C8.04819 14.9287 6.66495 14.3558 5.6451 13.3359C5.30829 12.999 5.30829 12.4528 5.6451 12.1159ZM7.33365 7.33389C7.33365 6.85739 6.94737 6.47111 6.47087 6.47111C5.99437 6.47111 5.60809 6.85739 5.60809 7.33389V8.9516C5.60816 9.42805 5.99442 9.81425 6.47087 9.81425C6.94732 9.81425 7.33357 9.42805 7.33365 8.9516V7.33389Z" fill="white"/>
</svg>
