<svg width="52" height="49" viewBox="0 0 52 49" fill="none" xmlns="http://www.w3.org/2000/svg">
<path d="M45.8409 17.981L26.0638 7.92284L32.1679 0.392221C32.4855 0.000395659 33.0336 -0.110364 33.4764 0.127882L51.0922 9.60534C51.6793 9.92113 51.8312 10.7006 51.4063 11.2169L45.8409 17.981ZM19.8751 0.40548L25.7275 7.92314L6.1258 17.981L0.252606 11.0597C-0.188706 10.5396 -0.0325939 9.74036 0.571404 9.42791L18.5686 0.116934C19.0165 -0.114743 19.5643 0.00623495 19.8751 0.40548ZM25.4122 27.4528L22.0622 36.9943C21.9824 37.2214 21.7232 37.3263 21.5099 37.2179L3.14689 27.7249C2.84238 27.57 2.7022 27.2089 2.82163 26.8867L6.11162 18.0122L25.4122 27.4528ZM25.2593 31.1802V48.6832C25.2593 48.9143 25.0215 49.0675 24.8135 48.9703L5.4888 39.7991C5.12205 39.6277 4.88848 39.2561 4.89126 38.8485L4.94826 30.5001C4.95001 30.2448 5.2173 30.0803 5.44332 30.1955L21.9191 38.7766C22.2227 38.9314 22.5924 38.7875 22.7142 38.4673L25.2593 31.1802ZM29.6877 37.0645L26.453 27.4528L45.8409 18.0122L49.5304 26.7748C49.6695 27.1052 49.5276 27.4874 49.2076 27.6446L30.0322 37.2094C29.8975 37.2755 29.7359 37.2075 29.6877 37.0645ZM46.8909 38.9431C46.8909 39.2936 46.6893 39.6122 46.3741 39.76L27.0306 48.9695C26.8227 49.067 26.5846 48.9139 26.5846 48.6826V31.1802L28.9767 38.5568C29.0641 38.8052 29.3473 38.9207 29.5815 38.8035L46.2612 30.3266C46.5509 30.1814 46.8909 30.3939 46.8909 30.7201V38.9431Z" fill="#555555"/>
</svg>
