<svg width="12" height="14" viewBox="0 0 12 14" fill="none" xmlns="http://www.w3.org/2000/svg">
<path d="M9.9705 3.70372C9.97229 4.19077 9.87079 4.67334 9.67187 5.12362C9.47295 5.5739 9.18053 5.983 8.81146 6.32733C8.44238 6.67167 8.00396 6.94444 7.52144 7.12993C7.03892 7.31542 6.52184 7.40996 6 7.40811C5.47819 7.40987 4.96115 7.31526 4.47868 7.12974C3.9962 6.94422 3.55782 6.67144 3.18877 6.32713C2.81972 5.98281 2.52729 5.57375 2.32833 5.12351C2.12938 4.67327 2.02782 4.19075 2.0295 3.70372C2.02781 3.21673 2.12938 2.73423 2.32835 2.28403C2.52731 1.83383 2.81975 1.42482 3.18881 1.08056C3.55787 0.736303 3.99626 0.463595 4.47873 0.278148C4.96121 0.0927011 5.47822 -0.00181996 6 2.93606e-05C6.52181 -0.00191308 7.03887 0.0925443 7.52138 0.277958C8.0039 0.463372 8.44233 0.736077 8.81141 1.08036C9.18049 1.42464 9.47293 1.83368 9.67186 2.28392C9.87079 2.73417 9.97229 3.2167 9.9705 3.70372ZM6 14C2.7465 14 0 13.5065 0 11.6025C0 9.69781 2.76375 9.22181 6 9.22181C9.25425 9.22181 12 9.71531 12 11.6193C12 13.524 9.23625 14 6 14Z" fill="#909791"/>
</svg>
