<svg width="20" height="18" viewBox="0 0 20 18" fill="none" xmlns="http://www.w3.org/2000/svg">
<path d="M13.6512 0C17.5203 0 20 3.01865 20 7.08131C20 10.234 17.068 13.7061 11.2912 17.6074C10.9119 17.8631 10.4614 18 10 18C9.53856 18 9.0881 17.8631 8.70875 17.6074C2.932 13.7061 0 10.234 0 7.08131C0 3.01865 2.47975 0 6.34875 0C7.746 0 8.69375 0.475055 10 1.55287C11.3065 0.475298 12.254 0 13.6512 0ZM13.6512 1.44C12.68 1.44 12.0045 1.78638 10.91 2.69514C10.8592 2.73722 10.5725 2.9773 10.4895 3.0459C10.3527 3.1586 10.1793 3.22045 10 3.22045C9.82075 3.22045 9.6473 3.1586 9.5105 3.0459C9.4275 2.97706 9.14075 2.73722 9.09 2.69514C7.9955 1.78638 7.32 1.44 6.34875 1.44C3.395 1.44 1.5 3.73817 1.5 7.0548C1.5 9.5838 4.16075 12.7226 9.5695 16.3618C9.69608 16.4467 9.84622 16.4922 10 16.4922C10.1538 16.4922 10.3039 16.4467 10.4305 16.3618C15.8392 12.7229 18.5 9.5838 18.5 7.0548C18.5 3.73817 16.605 1.44 13.6512 1.44Z" fill="white"/>
</svg>
