<svg width="12" height="14" viewBox="0 0 12 14" fill="none" xmlns="http://www.w3.org/2000/svg">
<path d="M0.75 14C0.551087 14 0.360322 13.9262 0.21967 13.795C0.0790174 13.6637 0 13.4857 0 13.3V0.7C0 0.514348 0.0790174 0.336301 0.21967 0.205025C0.360322 0.0737497 0.551087 4.35121e-09 0.75 0H11.25C11.4489 4.35121e-09 11.6397 0.0737497 11.7803 0.205025C11.921 0.336301 12 0.514348 12 0.7V7V13.3C12 13.4857 11.921 13.6637 11.7803 13.795C11.6397 13.9262 11.4489 14 11.25 14H0.75ZM8.25 9.5815C8.25 10.0285 8.79187 10.2509 9.10589 9.9327L12 7L9.10589 4.0673C8.79187 3.7491 8.25 3.97145 8.25 4.4185V6.3H3.25C2.97386 6.3 2.75 6.52386 2.75 6.8V7.2C2.75 7.47614 2.97386 7.7 3.25 7.7H8.25V9.5815Z" fill="#909791"/>
</svg>
