<svg width="24" height="30" viewBox="0 0 24 30" fill="none" xmlns="http://www.w3.org/2000/svg">
<rect width="24" height="30" rx="6" fill="black" fill-opacity="0.4"/>
<path fill-rule="evenodd" clip-rule="evenodd" d="M13.76 8.76C13.76 9.73202 12.972 10.52 12 10.52C11.028 10.52 10.24 9.73202 10.24 8.76C10.24 7.78798 11.028 7 12 7C12.972 7 13.76 7.78798 13.76 8.76ZM13.76 14.3333C13.76 15.3054 12.972 16.0933 12 16.0933C11.028 16.0933 10.24 15.3054 10.24 14.3333C10.24 13.3613 11.028 12.5733 12 12.5733C12.972 12.5733 13.76 13.3613 13.76 14.3333ZM12 21.6666C12.972 21.6666 13.76 20.8786 13.76 19.9066C13.76 18.9346 12.972 18.1466 12 18.1466C11.028 18.1466 10.24 18.9346 10.24 19.9066C10.24 20.8786 11.028 21.6666 12 21.6666Z" fill="white"/>
</svg>
