<svg width="4" height="15" viewBox="0 0 4 15" fill="none" xmlns="http://www.w3.org/2000/svg">
<path fill-rule="evenodd" clip-rule="evenodd" d="M3.76023 1.76C3.76023 2.73202 2.97225 3.52 2.00023 3.52C1.02821 3.52 0.240234 2.73202 0.240234 1.76C0.240234 0.787979 1.02821 0 2.00023 0C2.97225 0 3.76023 0.787979 3.76023 1.76ZM3.76023 7.33334C3.76023 8.30536 2.97225 9.09334 2.00023 9.09334C1.02821 9.09334 0.240234 8.30536 0.240234 7.33334C0.240234 6.36132 1.02821 5.57334 2.00023 5.57334C2.97225 5.57334 3.76023 6.36132 3.76023 7.33334ZM2.00023 14.6666C2.97225 14.6666 3.76023 13.8786 3.76023 12.9066C3.76023 11.9346 2.97225 11.1466 2.00023 11.1466C1.02821 11.1466 0.240234 11.9346 0.240234 12.9066C0.240234 13.8786 1.02821 14.6666 2.00023 14.6666Z" fill="white"/>
</svg>
