<svg width="24" height="24" viewBox="0 0 24 24" fill="none" xmlns="http://www.w3.org/2000/svg">
<path d="M20.1875 19.5263H15.6042C15.6042 20.4476 15.242 21.3311 14.5973 21.9826C13.9527 22.634 13.0783 23 12.1667 23C11.255 23 10.3806 22.634 9.73599 21.9826C9.09133 21.3311 8.72917 20.4476 8.72917 19.5263H4.14583C3.99536 19.5263 3.84636 19.4964 3.70734 19.4382C3.56832 19.38 3.44201 19.2947 3.33561 19.1872C3.22921 19.0797 3.1448 18.952 3.08722 18.8115C3.02964 18.671 3 18.5205 3 18.3684V17.2105H5.29167V10.2632C5.29601 8.62456 5.87337 7.04024 6.92173 5.79016C7.9701 4.54007 9.42197 3.70467 11.0208 3.43158V2.15789C11.0208 1.8508 11.1416 1.55629 11.3564 1.33914C11.5713 1.12199 11.8628 1 12.1667 1C12.4706 1 12.762 1.12199 12.9769 1.33914C13.1918 1.55629 13.3125 1.8508 13.3125 2.15789V3.43158C14.9114 3.70467 16.3632 4.54007 17.4116 5.79016C18.46 7.04024 19.0373 8.62456 19.0417 10.2632V17.2105H21.3333V18.3684C21.3333 18.6755 21.2126 18.97 20.9977 19.1872C20.7828 19.4043 20.4914 19.5263 20.1875 19.5263ZM12.1667 20.6842C12.4706 20.6842 12.762 20.5622 12.9769 20.3451C13.1918 20.1279 13.3125 19.8334 13.3125 19.5263H11.0208C11.0208 19.8334 11.1416 20.1279 11.3564 20.3451C11.5713 20.5622 11.8628 20.6842 12.1667 20.6842ZM16.75 10.2632C16.75 9.65493 16.6314 9.05266 16.4011 8.49073C16.1708 7.9288 15.8332 7.41822 15.4076 6.98814C14.982 6.55805 14.4767 6.2169 13.9206 5.98414C13.3646 5.75138 12.7686 5.63158 12.1667 5.63158C10.9511 5.63158 9.7853 6.11955 8.92576 6.98814C8.06622 7.85673 7.58333 9.03479 7.58333 10.2632V17.2105H16.75V10.2632Z" fill="white"/>
</svg>
