<svg width="18" height="18" viewBox="0 0 18 18" fill="none" xmlns="http://www.w3.org/2000/svg">
<path d="M16.0731 0H8.03655C7.04961 0 6.20366 0.800933 6.20366 1.74321V3.53353C2.34987 6.8786 0.375979 8.57469 0.375979 8.57469C0.375979 8.57469 0 8.85737 0 9.09294V17.2907C0 17.5734 0.328982 17.9503 0.798956 17.9974C1.26893 18.0445 1.50392 17.4321 1.50392 17.1023V9.79965L6.20366 5.65364V9.37562L3.71279 11.9669C3.47781 12.2024 3.19582 12.7207 3.5718 13.0976C3.94778 13.4745 4.37076 13.3332 4.60574 13.0976L7.42559 10.1766L8.69452 9.04583C8.69452 9.04583 9.49347 8.66892 10.1044 9.04583C10.7154 9.42274 10.4804 10.1766 10.2924 10.5535C10.0574 10.9304 9.68146 11.4015 9.0235 11.9669L6.76762 13.9457L3.5718 16.6782C3.33681 16.8667 3.24282 17.3378 3.5718 17.6676C3.90078 17.9974 4.46475 17.7619 4.60574 17.6676L7.2376 15.4062C7.51958 15.5475 7.80157 15.6417 8.13055 15.6417H16.1671C17.154 15.6417 18 14.8408 18 13.8985V1.74321C17.859 0.800933 17.0601 0 16.0731 0ZM10.0574 13.0505C11.3734 11.9198 12.0313 10.7419 12.0313 9.84676C12.0313 8.9516 11.2794 6.73726 8.31854 7.72665C8.22454 7.77376 8.08355 7.82087 7.98956 7.86799C7.80157 7.96221 7.61358 8.05644 7.47259 8.15067V1.74321C7.47259 1.46052 7.75457 1.22496 8.03655 1.22496H13.6292V14.4168H8.45953L10.0574 13.0505ZM16.6371 13.9457C16.6371 14.2283 16.3551 14.4639 16.0731 14.4639H14.8042V1.27207H16.0731C16.4021 1.27207 16.6371 1.50764 16.6371 1.79032V13.9457Z" fill="#E5D32D"/>
</svg>
