<svg width="19" height="18" viewBox="0 0 19 18" fill="none" xmlns="http://www.w3.org/2000/svg">
<path d="M16.5731 0H8.53655C7.54961 0 6.70366 0.800933 6.70366 1.74321V3.53353C2.84987 6.8786 0.875979 8.57469 0.875979 8.57469C0.875979 8.57469 0.5 8.85737 0.5 9.09294V17.2907C0.5 17.5734 0.828982 17.9503 1.29896 17.9974C1.76893 18.0445 2.00392 17.4321 2.00392 17.1023V9.79965L6.70366 5.65364V9.37562L4.21279 11.9669C3.97781 12.2024 3.69582 12.7207 4.0718 13.0976C4.44778 13.4745 4.87076 13.3332 5.10574 13.0976L7.92559 10.1766L9.19452 9.04583C9.19452 9.04583 9.99347 8.66892 10.6044 9.04583C11.2154 9.42274 10.9804 10.1766 10.7924 10.5535C10.5574 10.9304 10.1815 11.4015 9.5235 11.9669L7.26762 13.9457L4.0718 16.6782C3.83681 16.8667 3.74282 17.3378 4.0718 17.6676C4.40078 17.9974 4.96475 17.7619 5.10574 17.6676L7.7376 15.4062C8.01958 15.5475 8.30157 15.6417 8.63055 15.6417H16.6671C17.654 15.6417 18.5 14.8408 18.5 13.8985V1.74321C18.359 0.800933 17.5601 0 16.5731 0ZM10.5574 13.0505C11.8734 11.9198 12.5313 10.7419 12.5313 9.84676C12.5313 8.9516 11.7794 6.73726 8.81854 7.72665C8.72454 7.77376 8.58355 7.82087 8.48956 7.86799C8.30157 7.96221 8.11358 8.05644 7.97259 8.15067V1.74321C7.97259 1.46052 8.25457 1.22496 8.53655 1.22496H14.1292V14.4168H8.95953L10.5574 13.0505ZM17.1371 13.9457C17.1371 14.2283 16.8551 14.4639 16.5731 14.4639H15.3042V1.27207H16.5731C16.9021 1.27207 17.1371 1.50764 17.1371 1.79032V13.9457Z" fill="black"/>
</svg>
