<svg width="24" height="24" viewBox="0 0 24 24" fill="none" xmlns="http://www.w3.org/2000/svg">
<circle cx="12" cy="12" r="12" fill="white"/>
<path fill-rule="evenodd" clip-rule="evenodd" d="M13.75 5.75C13.75 4.92157 13.0784 4.25 12.25 4.25C11.4216 4.25 10.75 4.92157 10.75 5.75V11H5.5C4.67157 11 4 11.6716 4 12.5C4 13.3284 4.67157 14 5.5 14H10.75V19.25C10.75 20.0784 11.4216 20.75 12.25 20.75C13.0784 20.75 13.75 20.0784 13.75 19.25V14H19C19.8284 14 20.5 13.3284 20.5 12.5C20.5 11.6716 19.8284 11 19 11H13.75V5.75Z" fill="#2CC84D"/>
</svg>
