<svg width="24" height="24" viewBox="0 0 24 24" fill="none" xmlns="http://www.w3.org/2000/svg">
<path fill-rule="evenodd" clip-rule="evenodd" d="M8.90517 12.5603C7.52488 11.4776 6.63635 9.79489 6.63635 7.90909C6.63635 4.65146 9.28781 2 12.5454 2C15.8031 2 18.4545 4.65146 18.4545 7.90909C18.4545 9.93857 17.4256 11.7328 15.8619 12.7972C18.9981 14.1937 21.1818 17.2761 21.1818 20.8462C21.1818 21.4832 20.6507 22 19.996 22C19.3414 22 18.8103 21.4832 18.8103 20.8462C18.8103 17.2404 15.7964 14.3077 12.0909 14.3077C8.38538 14.3077 5.37154 17.2404 5.37154 20.8462C5.37154 21.4832 4.84042 22 4.18577 22C3.53113 22 3 21.4832 3 20.8462C3 17.058 5.45877 13.8188 8.90517 12.5603ZM8.99999 7.90909C8.99999 5.95466 10.591 4.36364 12.5454 4.36364C14.4999 4.36364 16.0909 5.95466 16.0909 7.90909C16.0909 9.86352 14.4999 11.4545 12.5454 11.4545C10.591 11.4545 8.99999 9.86352 8.99999 7.90909Z" fill="white"/>
</svg>
