<svg width="32" height="32" viewBox="0 0 32 32" fill="none" xmlns="http://www.w3.org/2000/svg">
<rect x="1" y="1" width="30" height="30" rx="15" stroke="#474747"/>
<path d="M20.3593 12.188C18.437 10.0294 15.2502 9.5453 12.7736 11.0357C10.2971 12.5261 9.23255 15.5685 10.2397 18.2778C11.2469 20.9871 14.0403 22.5954 16.8891 22.1061C19.7378 21.6168 21.8345 19.1686 21.8799 16.2785L24.0208 15.705C24.2355 19.2634 22.1092 22.5472 18.7745 23.8074C15.4399 25.0675 11.6732 24.0106 9.48095 21.1996C7.28867 18.3886 7.18117 14.4779 9.21571 11.5507C11.2503 8.6235 14.9532 7.36125 18.352 8.43631L17.5721 7.08618L19.4534 6L22.6696 11.5699L20.3593 12.188Z" fill="white"/>
</svg>
