<svg width="204" height="47" viewBox="0 0 204 47" fill="none" xmlns="http://www.w3.org/2000/svg">
<path fill-rule="evenodd" clip-rule="evenodd" d="M42.2638 0C45.8858 0 48.822 2.9362 48.822 6.55818V29.8761C48.822 33.4981 45.8858 36.4343 42.2638 36.4343H27.3461C26.8668 36.4343 26.4009 36.5918 26.0199 36.8826L13.3495 46.552C12.3898 47.2845 11.018 47.1002 10.2855 46.1404C9.55306 45.1807 9.73734 43.8089 10.6971 43.0764L23.3674 33.4069C24.5104 32.5347 25.9083 32.0622 27.3461 32.0622H42.2638C43.4711 32.0622 44.4499 31.0835 44.4499 29.8761V6.55818C44.4499 5.35085 43.4711 4.37212 42.2638 4.37212H6.55818C5.35085 4.37212 4.37212 5.35085 4.37212 6.55818V29.8761C4.37212 31.0835 5.35085 32.0622 6.55818 32.0622H9.47292C10.6802 32.0622 11.659 33.0409 11.659 34.2483C11.659 35.4556 10.6802 36.4343 9.47292 36.4343H6.55818C2.9362 36.4343 0 33.4981 0 29.8761V6.55818C0 2.9362 2.9362 0 6.55818 0H42.2638ZM15.6667 19.6742C17.4777 19.6742 18.9458 17.8799 18.9458 15.6664C18.9458 13.453 17.4777 11.6586 15.6667 11.6586C13.8557 11.6586 12.3876 13.453 12.3876 15.6664C12.3876 17.8799 13.8557 19.6742 15.6667 19.6742ZM36.4286 14.3816C37.1275 13.9823 37.3703 13.092 36.9709 12.3932C36.5716 11.6944 35.6813 11.4516 34.9825 11.8509L29.8817 14.7657C29.4276 15.0251 29.1474 15.508 29.1474 16.031C29.1474 16.554 29.4276 17.0369 29.8817 17.2964L34.9825 20.2111C35.6813 20.6104 36.5716 20.3677 36.9709 19.6688C37.3703 18.97 37.1275 18.0797 36.4286 17.6804L33.5422 16.031L36.4286 14.3816ZM30.7415 22.1451C31.3892 22.623 31.5267 23.5355 31.0488 24.1831C29.8033 25.8709 27.778 26.9612 25.504 26.9612C23.2301 26.9612 21.2048 25.8709 19.9593 24.1831C19.4814 23.5355 19.6189 22.623 20.2666 22.1451C20.9142 21.6672 21.8266 21.8047 22.3046 22.4524C23.0131 23.4125 24.1763 24.0464 25.504 24.0464C26.8318 24.0464 27.995 23.4125 28.7035 22.4524C29.1815 21.8047 30.0939 21.6672 30.7415 22.1451ZM70.7979 25.2757V21.7321C70.7979 21.161 70.479 20.8754 69.8411 20.8754H66.1669C64.2787 20.8754 62.9392 20.46 62.1482 19.6293C61.3827 18.7726 61 17.5524 61 15.9688V10.8287C61 7.60955 62.8626 6 66.5879 6H71.8313C75.5565 6 77.4191 7.60955 77.4191 10.8287V13.8271H70.7214V11.7243C70.7214 11.1532 70.4024 10.8676 69.7645 10.8676H68.6546C68.0167 10.8676 67.6978 11.1532 67.6978 11.7243V15.4237C67.6978 15.9948 68.0167 16.2804 68.6546 16.2804H72.2523C74.1404 16.2804 75.48 16.6828 76.2709 17.4875C77.0874 18.2923 77.4957 19.4735 77.4957 21.0312V26.1713C77.4957 29.3904 75.6331 31 71.9078 31H66.7027C62.9519 31 61.0765 29.3904 61.0765 26.1713V23.1729H67.7743V25.2757C67.7743 25.8468 68.0933 26.1324 68.7312 26.1324H69.8411C70.479 26.1324 70.7979 25.8468 70.7979 25.2757ZM89.8659 16.4361H87.4547V25.2757C87.4547 25.8468 87.7737 26.1324 88.4116 26.1324H89.8277V31H86.5745C82.8237 31 80.9483 29.3904 80.9483 26.1713V16.4361H78.8433V11.5685H80.9483V7.75234H87.4547V11.5685H89.8659V16.4361ZM101.874 11.5685H97.0128C95.0737 11.5685 93.6831 11.9839 92.8411 12.8146C91.9991 13.6454 91.5781 14.8396 91.5781 16.3972V26.1713C91.5781 27.729 91.9991 28.9232 92.8411 29.7539C93.6831 30.5846 95.0737 31 97.0128 31H101.874C103.813 31 105.203 30.5846 106.045 29.7539C106.887 28.9232 107.308 27.729 107.308 26.1713V16.3972C107.308 14.8396 106.887 13.6454 106.045 12.8146C105.203 11.9839 103.813 11.5685 101.874 11.5685ZM100.917 17.0202V25.5483C100.917 26.1194 100.598 26.405 99.9598 26.405H98.9265C98.2886 26.405 97.9697 26.1194 97.9697 25.5483V17.0202C97.9697 16.4491 98.2886 16.1636 98.9265 16.1636H99.9598C100.598 16.1636 100.917 16.4491 100.917 17.0202ZM120.721 11.3738H121.295V17.1371H119.113C117.506 17.1371 116.702 18.0197 116.702 19.785V31H110.196V11.5685H116.587V14.567C116.792 13.5805 117.251 12.8017 117.965 12.2305C118.68 11.6594 119.598 11.3738 120.721 11.3738ZM130.288 24.0296L127.953 11.5685H121.485L126.384 31H134.153L139.052 11.5685H132.584L130.288 24.0296ZM145.826 11.5685H150.495C154.246 11.5685 156.121 13.1781 156.121 16.3972V23.0171H146.362V25.5872C146.362 26.1584 146.681 26.4439 147.319 26.4439H149.003C149.64 26.4439 149.959 26.1324 149.959 25.5093V24.419H156.121V26.1713C156.121 29.3904 154.246 31 150.495 31H145.826C142.075 31 140.2 29.3904 140.2 26.1713V16.3972C140.2 13.1781 142.075 11.5685 145.826 11.5685ZM146.362 19.4346H149.959V16.9813C149.959 16.4102 149.64 16.1246 149.003 16.1246H147.319C146.681 16.1246 146.362 16.4102 146.362 16.9813V19.4346ZM169.697 11.3738H169.123C168 11.3738 167.082 11.6594 166.367 12.2305C165.653 12.8017 165.193 13.5805 164.989 14.567V11.5685H158.598V31H165.104V19.785C165.104 18.0197 165.908 17.1371 167.515 17.1371H169.697V11.3738ZM179.646 25.8598V24.3022C179.646 23.731 179.327 23.4455 178.69 23.4455H176.355C172.681 23.4455 170.844 21.8489 170.844 18.6558V16.3972C170.844 13.1781 172.719 11.5685 176.47 11.5685H180.029C183.78 11.5685 185.655 13.1781 185.655 16.3972V18.0327H179.455V16.7087C179.455 16.1376 179.136 15.852 178.498 15.852H178.115C177.478 15.852 177.159 16.1376 177.159 16.7087V18.4221C177.159 18.9932 177.478 19.2788 178.115 19.2788H180.45C182.415 19.2788 183.818 19.6942 184.66 20.5249C185.528 21.3297 185.961 22.4979 185.961 24.0296V26.1713C185.961 29.3904 184.086 31 180.335 31H176.585C172.834 31 170.958 29.3904 170.958 26.1713V24.5748H177.273V25.8598C177.273 26.4309 177.592 26.7165 178.23 26.7165H178.69C179.327 26.7165 179.646 26.4309 179.646 25.8598ZM198.374 11.5685H193.705C189.954 11.5685 188.078 13.1781 188.078 16.3972V26.1713C188.078 29.3904 189.954 31 193.705 31H198.374C202.125 31 204 29.3904 204 26.1713V24.419H197.838V25.5093C197.838 26.1324 197.519 26.4439 196.881 26.4439H195.197C194.559 26.4439 194.24 26.1584 194.24 25.5872V23.0171H204V16.3972C204 13.1781 202.125 11.5685 198.374 11.5685ZM197.838 19.4346H194.24V16.9813C194.24 16.4102 194.559 16.1246 195.197 16.1246H196.881C197.519 16.1246 197.838 16.4102 197.838 16.9813V19.4346Z" fill="#21C143"/>
</svg>
