<svg width="157" height="30" viewBox="0 0 157 30" fill="none" xmlns="http://www.w3.org/2000/svg">
<path fill-rule="evenodd" clip-rule="evenodd" d="M25.8812 14.3042C25.8812 20.6557 20.7323 25.8046 14.3808 25.8046C8.02936 25.8046 2.88048 20.6557 2.88048 14.3042C2.88048 7.95276 8.02936 2.80388 14.3808 2.80388C20.7323 2.80388 25.8812 7.95276 25.8812 14.3042ZM24.6682 24.2431C22.0672 26.9347 18.4195 28.6084 14.3808 28.6084C6.48082 28.6084 0.0765991 22.2042 0.0765991 14.3042C0.0765991 6.40422 6.48082 0 14.3808 0C22.2808 0 28.685 6.40422 28.685 14.3042C28.685 17.2006 27.8242 19.8959 26.3445 22.1482L31.0585 25.8933C32.0008 26.6419 32.0808 28.0442 31.2299 28.8952C30.3789 29.7462 28.9765 29.6661 28.2279 28.7238L24.6682 24.2431Z" fill="#21C143"/>
<ellipse cx="10.9928" cy="14.3042" rx="3.38784" ry="6.77569" fill="white"/>
<ellipse cx="18.5214" cy="14.3042" rx="3.38784" ry="6.77569" fill="white"/>
<circle cx="12.499" cy="14.6806" r="1.88213" fill="#153C1D"/>
<circle cx="20.0272" cy="14.6806" r="1.88213" fill="#153C1D"/>
<path d="M51.1401 18.7712C51.1401 19.9465 50.9092 21.0168 50.4475 21.9821C50.0068 22.9265 49.3982 23.745 48.6217 24.4376C47.8662 25.1301 46.9638 25.6653 45.9145 26.043C44.8862 26.4208 43.7739 26.6096 42.5777 26.6096C41.7382 26.6096 40.8988 26.3893 40.0593 25.9486C39.2198 25.4869 38.4119 24.7628 37.6354 23.7765L39.9649 19.212C40.1118 19.4848 40.3321 19.7681 40.6259 20.0619C40.9197 20.3347 41.245 20.5761 41.6018 20.7859C41.9795 20.9958 42.3468 21.1742 42.7036 21.3211C43.0813 21.447 43.4171 21.51 43.7109 21.51C43.9628 21.51 44.2251 21.468 44.4979 21.384C44.7707 21.3001 45.0226 21.1742 45.2534 21.0063C45.4843 20.8384 45.6627 20.6495 45.7886 20.4397C45.9355 20.2088 46.0089 19.9465 46.0089 19.6527C46.0089 19.149 45.841 18.6873 45.5053 18.2676C45.1905 17.8269 44.7917 17.4176 44.309 17.0399C43.8263 16.6411 43.3017 16.2424 42.7351 15.8436C42.1684 15.4449 41.6438 15.0252 41.1611 14.5845C40.6994 14.1437 40.3006 13.6506 39.9649 13.1049C39.6291 12.5593 39.4612 11.9507 39.4612 11.2791C39.4612 10.1878 39.7865 9.16999 40.4371 8.2256C41.0876 7.28121 41.8956 6.47324 42.861 5.80168C43.8473 5.10913 44.9176 4.56348 46.0719 4.16474C47.2261 3.766 48.3174 3.56663 49.3458 3.56663C49.9124 3.56663 50.4475 3.64008 50.9512 3.78699C51.4549 3.91291 51.8851 4.13326 52.2419 4.44806C52.6196 4.74187 52.9134 5.11962 53.1233 5.58132C53.3541 6.04302 53.4696 6.62014 53.4696 7.31269C53.4696 7.6065 53.4381 7.90031 53.3751 8.19412C53.3332 8.48793 53.2912 8.80272 53.2492 9.13851L48.6847 10.4606C48.7267 10.2928 48.7581 10.1249 48.7791 9.95697C48.8211 9.78908 48.8421 9.62119 48.8421 9.4533C48.8421 8.82371 48.7267 8.3725 48.4958 8.09968C48.2859 7.80587 48.0026 7.65897 47.6459 7.65897C47.478 7.65897 47.2681 7.72193 47.0163 7.84784C46.7854 7.97376 46.5441 8.14166 46.2922 8.35152C46.0614 8.5404 45.862 8.77125 45.6941 9.04407C45.5262 9.31689 45.4423 9.6107 45.4423 9.92549C45.4423 10.4292 45.5787 10.8489 45.8515 11.1847C46.1453 11.5205 46.5021 11.8353 46.9218 12.1291C47.3416 12.4229 47.7928 12.7272 48.2755 13.042C48.7791 13.3358 49.2408 13.724 49.6606 14.2067C50.0803 14.6894 50.4266 15.298 50.6994 16.0325C50.9932 16.7461 51.1401 17.659 51.1401 18.7712Z" fill="url(#paint0_linear_411_2634)"/>
<path d="M53.5542 26.5782C54.0369 24.2697 54.4986 21.9926 54.9393 19.7471C55.1282 18.8027 55.317 17.8164 55.5059 16.788C55.6948 15.7597 55.8732 14.7524 56.0411 13.766C56.2299 12.7587 56.3873 11.7933 56.5132 10.8699C56.6602 9.92549 56.7861 9.06505 56.891 8.28856C56.4083 8.2256 55.9151 8.20461 55.4115 8.2256C54.9288 8.24659 54.4461 8.18363 53.9634 8.03672C53.9844 7.70094 53.9949 7.31269 53.9949 6.87198C53.9949 6.43127 54.0054 5.99055 54.0264 5.54984C54.0474 5.06715 54.0683 4.55299 54.0893 4.00734C54.635 4.04932 55.1806 4.0808 55.7263 4.10178C56.2719 4.12277 56.8176 4.13326 57.3632 4.13326C58.4335 4.13326 59.4618 4.11228 60.4482 4.0703C61.4555 4.00734 62.3789 3.94439 63.2184 3.88143C64.0788 3.79748 64.9183 3.70304 65.7367 3.59811L65.3905 5.298C65.2855 5.78069 65.1806 6.27387 65.0757 6.77754C64.9917 7.28121 64.9078 7.71143 64.8238 8.0682C64.3621 8.19412 63.8899 8.28856 63.4073 8.35152C62.9456 8.39349 62.4839 8.45645 62.0222 8.54039C61.8753 9.25393 61.7179 10.0514 61.55 10.9328C61.3821 11.7933 61.2142 12.6957 61.0463 13.6401C60.8994 14.5635 60.7525 15.5079 60.6056 16.4732C60.4587 17.4386 60.3118 18.362 60.1649 19.2434C59.8291 21.3211 59.5143 23.4722 59.2205 25.6967L53.5542 26.5782Z" fill="url(#paint1_linear_411_2634)"/>
<path d="M79.7547 9.51626C79.7547 11.2371 79.5659 12.8636 79.1881 14.3956C78.8313 15.9066 78.3486 17.3022 77.74 18.5824C77.1314 19.8415 76.4179 20.9748 75.5994 21.9821C74.8019 22.9685 73.9625 23.8185 73.0811 24.532C72.1996 25.2245 71.3077 25.7597 70.4053 26.1374C69.5029 26.4942 68.6425 26.6726 67.824 26.6726C67.1314 26.6726 66.5018 26.5467 65.9352 26.2948C65.3686 26.022 64.8754 25.6338 64.4557 25.1301C64.036 24.6054 63.7002 23.9444 63.4483 23.1469C63.2175 22.3284 63.1021 21.3526 63.1021 20.2193C63.1021 19.0441 63.249 17.8059 63.5428 16.5047C63.8366 15.2036 64.2353 13.9129 64.739 12.6327C65.2427 11.3526 65.8618 10.1354 66.5963 8.98111C67.3308 7.82686 68.1388 6.80902 69.0202 5.92759C69.9016 5.02518 70.846 4.31165 71.8534 3.78699C72.8607 3.26233 73.91 3 75.0013 3C75.9457 3 76.7222 3.19937 77.3308 3.59811C77.9604 3.97586 78.4431 4.47954 78.7789 5.10913C79.1356 5.71773 79.3875 6.41028 79.5344 7.18678C79.6813 7.96327 79.7547 8.73977 79.7547 9.51626ZM67.7925 19.4008C67.7925 19.6317 67.8345 19.873 67.9184 20.1249C68.0024 20.3767 68.1178 20.5971 68.2647 20.7859C68.4116 20.9748 68.59 21.1427 68.7999 21.2896C69.0307 21.4155 69.272 21.4785 69.5239 21.4785C70.4683 21.4785 71.3077 21.1532 72.0422 20.5026C72.7768 19.852 73.3854 19.0546 73.8681 18.1102C74.3507 17.1658 74.718 16.1584 74.9698 15.0881C75.2427 14.0178 75.3791 13.042 75.3791 12.1605C75.3791 11.9087 75.3581 11.6359 75.3161 11.3421C75.2951 11.0483 75.2322 10.7754 75.1272 10.5236C75.0433 10.2718 74.8964 10.0619 74.6865 9.89401C74.4976 9.70514 74.2353 9.6107 73.8995 9.6107C73.228 9.6107 72.6089 9.77859 72.0422 10.1144C71.4756 10.4502 70.9614 10.9014 70.4997 11.468C70.059 12.0136 69.6708 12.6432 69.335 13.3568C68.9992 14.0493 68.7054 14.7628 68.4536 15.4974C68.2227 16.2109 68.0548 16.9139 67.9499 17.6065C67.845 18.299 67.7925 18.8972 67.7925 19.4008Z" fill="url(#paint2_linear_411_2634)"/>
<path d="M77.7767 26.5782C78.3433 23.787 78.889 21.0587 79.4136 18.3935C79.6025 17.2602 79.8124 16.085 80.0432 14.8678C80.2741 13.6296 80.4839 12.4124 80.6728 11.2162C80.8827 9.99895 81.0715 8.8342 81.2394 7.72193C81.4283 6.58866 81.5752 5.56033 81.6801 4.63693C82.8764 4.25918 84.167 3.98636 85.5521 3.81847C86.9372 3.62959 88.3118 3.53515 89.6759 3.53515C90.4944 3.53515 91.166 3.62959 91.6906 3.81847C92.2363 4.00734 92.656 4.28017 92.9498 4.63693C93.2646 4.97272 93.485 5.37146 93.6109 5.83316C93.7368 6.29486 93.7998 6.80902 93.7998 7.37565C93.7998 8.21511 93.6529 9.04407 93.359 9.86253C93.0652 10.66 92.6665 11.426 92.1628 12.1605C91.6801 12.8741 91.1135 13.5351 90.4629 14.1437C89.8333 14.7314 89.1513 15.2141 88.4168 15.5918C88.7945 16.4313 89.1933 17.3547 89.613 18.362C90.0537 19.3484 90.4629 20.2927 90.8407 21.1952C91.2604 22.2445 91.6906 23.2938 92.1313 24.3431L87.252 26.043C86.8323 24.6999 86.4545 23.4407 86.1188 22.2655C85.9718 21.7828 85.8249 21.2896 85.678 20.7859C85.5311 20.2613 85.3947 19.7681 85.2688 19.3064C85.1429 18.8447 85.038 18.4355 84.954 18.0787C84.8701 17.7009 84.8176 17.3966 84.7966 17.1658L84.3874 17.2917C84.2615 17.9633 84.1041 18.7503 83.9152 19.6527C83.7473 20.5551 83.5899 21.426 83.443 22.2655C83.2541 23.2518 83.0652 24.2487 82.8764 25.256L77.7767 26.5782ZM85.1744 12.916C85.5731 12.8741 86.0558 12.7062 86.6224 12.4124C87.21 12.1186 87.7662 11.7723 88.2908 11.3736C88.8155 10.9538 89.2667 10.5236 89.6445 10.0829C90.0222 9.64218 90.2111 9.25393 90.2111 8.91815C90.2111 8.6873 90.1376 8.50892 89.9907 8.383C89.8438 8.23609 89.634 8.13116 89.3611 8.0682C89.1093 7.98426 88.826 7.93179 88.5112 7.91081C88.1964 7.88982 87.8711 7.87932 87.5353 7.87932C87.3045 7.87932 87.0631 7.88982 86.8113 7.91081C86.5805 7.91081 86.3706 7.91081 86.1817 7.91081L85.1744 12.916Z" fill="url(#paint3_linear_411_2634)"/>
<path d="M93.4955 26.83C93.7684 23.8919 94.0202 21.0063 94.251 18.1731C94.356 16.9979 94.4504 15.7597 94.5344 14.4585C94.6393 13.1574 94.7232 11.8772 94.7862 10.618C94.8701 9.33788 94.9331 8.11017 94.9751 6.93494C95.017 5.73872 95.0485 4.64743 95.0695 3.66107C95.5732 3.66107 96.1083 3.65058 96.675 3.62959C97.2626 3.6086 97.7872 3.58762 98.2489 3.56663C98.7316 3.54565 99.1409 3.52466 99.4766 3.50367C99.8124 3.4617 99.9803 3.44071 99.9803 3.44071C99.7495 5.87513 99.5501 7.87933 99.3822 9.4533C99.2143 11.0063 99.0779 12.276 98.973 13.2623C98.889 14.2277 98.8051 15.1616 98.7211 16.064C98.6582 16.9664 98.5847 17.8059 98.5008 18.5824C98.4168 19.3589 98.3434 20.0199 98.2804 20.5656H98.8471L102.373 3.81847C102.939 3.79748 103.517 3.766 104.104 3.72403C104.629 3.68206 105.174 3.65058 105.741 3.62959C106.329 3.6086 106.864 3.56663 107.347 3.50367C107.053 4.42707 106.748 5.44491 106.434 6.55718C106.14 7.66946 105.825 8.82371 105.489 10.0199C105.174 11.2162 104.86 12.4334 104.545 13.6716C104.251 14.9098 103.957 16.106 103.663 17.2602C102.992 19.9675 102.32 22.7482 101.649 25.6023L93.4955 26.83Z" fill="url(#paint4_linear_411_2634)"/>
<path d="M103.818 26.5782L107.942 4.19622L117.889 3.34627C117.742 3.80797 117.616 4.28017 117.511 4.76285C117.407 5.16159 117.302 5.58132 117.197 6.02203C117.113 6.44176 117.039 6.81951 116.976 7.1553C116.766 7.17628 116.462 7.19727 116.063 7.21825C115.686 7.21825 115.276 7.22875 114.836 7.24973C114.395 7.24973 113.944 7.24973 113.482 7.24973C113.041 7.24973 112.653 7.24973 112.317 7.24973L111.216 12.8846C111.866 12.8426 112.475 12.8111 113.041 12.7901C113.503 12.7691 113.975 12.7587 114.458 12.7587C114.941 12.7587 115.297 12.7482 115.528 12.7272C115.444 13.3148 115.36 13.8919 115.276 14.4585C115.213 15.0252 115.13 15.6023 115.025 16.1899C114.815 16.2109 114.468 16.2319 113.986 16.2529C113.524 16.2529 113.052 16.2634 112.569 16.2844C112.024 16.3053 111.425 16.3263 110.775 16.3473L109.705 22.1395L114.301 21.4155L113.986 25.0042L103.818 26.5782Z" fill="url(#paint5_linear_411_2634)"/>
<path d="M114.421 26.5782C114.987 23.787 115.533 21.0587 116.058 18.3935C116.247 17.2602 116.456 16.085 116.687 14.8678C116.918 13.6296 117.128 12.4124 117.317 11.2162C117.527 9.99895 117.716 8.8342 117.884 7.72193C118.072 6.58866 118.219 5.56033 118.324 4.63693C119.52 4.25918 120.811 3.98636 122.196 3.81847C123.581 3.62959 124.956 3.53515 126.32 3.53515C127.139 3.53515 127.81 3.62959 128.335 3.81847C128.88 4.00734 129.3 4.28017 129.594 4.63693C129.909 4.97272 130.129 5.37146 130.255 5.83316C130.381 6.29486 130.444 6.80902 130.444 7.37565C130.444 8.21511 130.297 9.04407 130.003 9.86253C129.709 10.66 129.311 11.426 128.807 12.1605C128.324 12.8741 127.758 13.5351 127.107 14.1437C126.477 14.7314 125.795 15.2141 125.061 15.5918C125.439 16.4313 125.837 17.3547 126.257 18.362C126.698 19.3484 127.107 20.2927 127.485 21.1952C127.905 22.2445 128.335 23.2938 128.775 24.3431L123.896 26.043C123.476 24.6999 123.099 23.4407 122.763 22.2655C122.616 21.7828 122.469 21.2896 122.322 20.7859C122.175 20.2613 122.039 19.7681 121.913 19.3064C121.787 18.8447 121.682 18.4355 121.598 18.0787C121.514 17.7009 121.462 17.3966 121.441 17.1658L121.032 17.2917C120.906 17.9633 120.748 18.7503 120.559 19.6527C120.391 20.5551 120.234 21.426 120.087 22.2655C119.898 23.2518 119.709 24.2487 119.52 25.256L114.421 26.5782ZM121.818 12.916C122.217 12.8741 122.7 12.7062 123.267 12.4124C123.854 12.1186 124.41 11.7723 124.935 11.3736C125.46 10.9538 125.911 10.5236 126.289 10.0829C126.666 9.64218 126.855 9.25393 126.855 8.91815C126.855 8.6873 126.782 8.50892 126.635 8.383C126.488 8.23609 126.278 8.13116 126.005 8.0682C125.753 7.98426 125.47 7.93179 125.155 7.91081C124.841 7.88982 124.515 7.87932 124.179 7.87932C123.949 7.87932 123.707 7.88982 123.455 7.91081C123.225 7.91081 123.015 7.91081 122.826 7.91081L121.818 12.916Z" fill="url(#paint6_linear_411_2634)"/>
<path d="M142.228 18.7712C142.228 19.9465 141.997 21.0168 141.535 21.9821C141.095 22.9265 140.486 23.745 139.709 24.4376C138.954 25.1301 138.052 25.6653 137.002 26.043C135.974 26.4208 134.862 26.6096 133.665 26.6096C132.826 26.6096 131.986 26.3893 131.147 25.9486C130.308 25.4869 129.5 24.7628 128.723 23.7765L131.053 19.212C131.199 19.4848 131.42 19.7681 131.714 20.0619C132.007 20.3347 132.333 20.5761 132.689 20.7859C133.067 20.9958 133.435 21.1742 133.791 21.3211C134.169 21.447 134.505 21.51 134.799 21.51C135.05 21.51 135.313 21.468 135.586 21.384C135.858 21.3001 136.11 21.1742 136.341 21.0063C136.572 20.8384 136.75 20.6495 136.876 20.4397C137.023 20.2088 137.097 19.9465 137.097 19.6527C137.097 19.149 136.929 18.6873 136.593 18.2676C136.278 17.8269 135.879 17.4176 135.397 17.0399C134.914 16.6411 134.389 16.2424 133.823 15.8436C133.256 15.4449 132.731 15.0252 132.249 14.5845C131.787 14.1437 131.388 13.6506 131.053 13.1049C130.717 12.5593 130.549 11.9507 130.549 11.2791C130.549 10.1878 130.874 9.16999 131.525 8.2256C132.175 7.28121 132.983 6.47324 133.949 5.80168C134.935 5.10913 136.005 4.56348 137.16 4.16474C138.314 3.766 139.405 3.56663 140.433 3.56663C141 3.56663 141.535 3.64008 142.039 3.78699C142.543 3.91291 142.973 4.13326 143.33 4.44806C143.707 4.74187 144.001 5.11962 144.211 5.58132C144.442 6.04302 144.557 6.62014 144.557 7.31269C144.557 7.6065 144.526 7.90031 144.463 8.19412C144.421 8.48793 144.379 8.80272 144.337 9.13851L139.772 10.4606C139.814 10.2928 139.846 10.1249 139.867 9.95697C139.909 9.78908 139.93 9.62119 139.93 9.4533C139.93 8.82371 139.814 8.3725 139.584 8.09968C139.374 7.80587 139.09 7.65897 138.734 7.65897C138.566 7.65897 138.356 7.72193 138.104 7.84784C137.873 7.97376 137.632 8.14166 137.38 8.35152C137.149 8.5404 136.95 8.77125 136.782 9.04407C136.614 9.31689 136.53 9.6107 136.53 9.92549C136.53 10.4292 136.666 10.8489 136.939 11.1847C137.233 11.5205 137.59 11.8353 138.01 12.1291C138.429 12.4229 138.88 12.7272 139.363 13.042C139.867 13.3358 140.329 13.724 140.748 14.2067C141.168 14.6894 141.514 15.298 141.787 16.0325C142.081 16.7461 142.228 17.659 142.228 18.7712Z" fill="url(#paint7_linear_411_2634)"/>
<path d="M142.061 26.5782L146.184 4.19622L156.132 3.34627C155.985 3.80797 155.859 4.28017 155.754 4.76285C155.649 5.16159 155.544 5.58132 155.439 6.02203C155.355 6.44176 155.282 6.81951 155.219 7.1553C155.009 7.17628 154.705 7.19727 154.306 7.21825C153.928 7.21825 153.519 7.22875 153.078 7.24973C152.638 7.24973 152.186 7.24973 151.725 7.24973C151.284 7.24973 150.896 7.24973 150.56 7.24973L149.458 12.8846C150.109 12.8426 150.717 12.8111 151.284 12.7901C151.746 12.7691 152.218 12.7587 152.701 12.7587C153.183 12.7587 153.54 12.7482 153.771 12.7272C153.687 13.3148 153.603 13.8919 153.519 14.4585C153.456 15.0252 153.372 15.6023 153.267 16.1899C153.057 16.2109 152.711 16.2319 152.228 16.2529C151.767 16.2529 151.295 16.2634 150.812 16.2844C150.266 16.3053 149.668 16.3263 149.018 16.3473L147.947 22.1395L152.543 21.4155L152.228 25.0042L142.061 26.5782Z" fill="url(#paint8_linear_411_2634)"/>
<path d="M51.1401 18.7712C51.1401 19.9465 50.9092 21.0168 50.4475 21.9821C50.0068 22.9265 49.3982 23.745 48.6217 24.4376C47.8662 25.1301 46.9638 25.6653 45.9145 26.043C44.8862 26.4208 43.7739 26.6096 42.5777 26.6096C41.7382 26.6096 40.8988 26.3893 40.0593 25.9486C39.2198 25.4869 38.4119 24.7628 37.6354 23.7765L39.9649 19.212C40.1118 19.4848 40.3321 19.7681 40.6259 20.0619C40.9197 20.3347 41.245 20.5761 41.6018 20.7859C41.9795 20.9958 42.3468 21.1742 42.7036 21.3211C43.0813 21.447 43.4171 21.51 43.7109 21.51C43.9628 21.51 44.2251 21.468 44.4979 21.384C44.7707 21.3001 45.0226 21.1742 45.2534 21.0063C45.4843 20.8384 45.6627 20.6495 45.7886 20.4397C45.9355 20.2088 46.0089 19.9465 46.0089 19.6527C46.0089 19.149 45.841 18.6873 45.5053 18.2676C45.1905 17.8269 44.7917 17.4176 44.309 17.0399C43.8263 16.6411 43.3017 16.2424 42.7351 15.8436C42.1684 15.4449 41.6438 15.0252 41.1611 14.5845C40.6994 14.1437 40.3006 13.6506 39.9649 13.1049C39.6291 12.5593 39.4612 11.9507 39.4612 11.2791C39.4612 10.1878 39.7865 9.16999 40.4371 8.2256C41.0876 7.28121 41.8956 6.47324 42.861 5.80168C43.8473 5.10913 44.9176 4.56348 46.0719 4.16474C47.2261 3.766 48.3174 3.56663 49.3458 3.56663C49.9124 3.56663 50.4475 3.64008 50.9512 3.78699C51.4549 3.91291 51.8851 4.13326 52.2419 4.44806C52.6196 4.74187 52.9134 5.11962 53.1233 5.58132C53.3541 6.04302 53.4696 6.62014 53.4696 7.31269C53.4696 7.6065 53.4381 7.90031 53.3751 8.19412C53.3332 8.48793 53.2912 8.80272 53.2492 9.13851L48.6847 10.4606C48.7267 10.2928 48.7581 10.1249 48.7791 9.95697C48.8211 9.78908 48.8421 9.62119 48.8421 9.4533C48.8421 8.82371 48.7267 8.3725 48.4958 8.09968C48.2859 7.80587 48.0026 7.65897 47.6459 7.65897C47.478 7.65897 47.2681 7.72193 47.0163 7.84784C46.7854 7.97376 46.5441 8.14166 46.2922 8.35152C46.0614 8.5404 45.862 8.77125 45.6941 9.04407C45.5262 9.31689 45.4423 9.6107 45.4423 9.92549C45.4423 10.4292 45.5787 10.8489 45.8515 11.1847C46.1453 11.5205 46.5021 11.8353 46.9218 12.1291C47.3416 12.4229 47.7928 12.7272 48.2755 13.042C48.7791 13.3358 49.2408 13.724 49.6606 14.2067C50.0803 14.6894 50.4266 15.298 50.6994 16.0325C50.9932 16.7461 51.1401 17.659 51.1401 18.7712Z" fill="url(#paint9_linear_411_2634)"/>
<path d="M53.5542 26.5782C54.0369 24.2697 54.4986 21.9926 54.9393 19.7471C55.1282 18.8027 55.317 17.8164 55.5059 16.788C55.6948 15.7597 55.8732 14.7524 56.0411 13.766C56.2299 12.7587 56.3873 11.7933 56.5132 10.8699C56.6602 9.92549 56.7861 9.06505 56.891 8.28856C56.4083 8.2256 55.9151 8.20461 55.4115 8.2256C54.9288 8.24659 54.4461 8.18363 53.9634 8.03672C53.9844 7.70094 53.9949 7.31269 53.9949 6.87198C53.9949 6.43127 54.0054 5.99055 54.0264 5.54984C54.0474 5.06715 54.0683 4.55299 54.0893 4.00734C54.635 4.04932 55.1806 4.0808 55.7263 4.10178C56.2719 4.12277 56.8176 4.13326 57.3632 4.13326C58.4335 4.13326 59.4618 4.11228 60.4482 4.0703C61.4555 4.00734 62.3789 3.94439 63.2184 3.88143C64.0788 3.79748 64.9183 3.70304 65.7367 3.59811L65.3905 5.298C65.2855 5.78069 65.1806 6.27387 65.0757 6.77754C64.9917 7.28121 64.9078 7.71143 64.8238 8.0682C64.3621 8.19412 63.8899 8.28856 63.4073 8.35152C62.9456 8.39349 62.4839 8.45645 62.0222 8.54039C61.8753 9.25393 61.7179 10.0514 61.55 10.9328C61.3821 11.7933 61.2142 12.6957 61.0463 13.6401C60.8994 14.5635 60.7525 15.5079 60.6056 16.4732C60.4587 17.4386 60.3118 18.362 60.1649 19.2434C59.8291 21.3211 59.5143 23.4722 59.2205 25.6967L53.5542 26.5782Z" fill="url(#paint10_linear_411_2634)"/>
<path d="M79.7547 9.51626C79.7547 11.2371 79.5659 12.8636 79.1881 14.3956C78.8313 15.9066 78.3486 17.3022 77.74 18.5824C77.1314 19.8415 76.4179 20.9748 75.5994 21.9821C74.8019 22.9685 73.9625 23.8185 73.0811 24.532C72.1996 25.2245 71.3077 25.7597 70.4053 26.1374C69.5029 26.4942 68.6425 26.6726 67.824 26.6726C67.1314 26.6726 66.5018 26.5467 65.9352 26.2948C65.3686 26.022 64.8754 25.6338 64.4557 25.1301C64.036 24.6054 63.7002 23.9444 63.4483 23.1469C63.2175 22.3284 63.1021 21.3526 63.1021 20.2193C63.1021 19.0441 63.249 17.8059 63.5428 16.5047C63.8366 15.2036 64.2353 13.9129 64.739 12.6327C65.2427 11.3526 65.8618 10.1354 66.5963 8.98111C67.3308 7.82686 68.1388 6.80902 69.0202 5.92759C69.9016 5.02518 70.846 4.31165 71.8534 3.78699C72.8607 3.26233 73.91 3 75.0013 3C75.9457 3 76.7222 3.19937 77.3308 3.59811C77.9604 3.97586 78.4431 4.47954 78.7789 5.10913C79.1356 5.71773 79.3875 6.41028 79.5344 7.18678C79.6813 7.96327 79.7547 8.73977 79.7547 9.51626ZM67.7925 19.4008C67.7925 19.6317 67.8345 19.873 67.9184 20.1249C68.0024 20.3767 68.1178 20.5971 68.2647 20.7859C68.4116 20.9748 68.59 21.1427 68.7999 21.2896C69.0307 21.4155 69.272 21.4785 69.5239 21.4785C70.4683 21.4785 71.3077 21.1532 72.0422 20.5026C72.7768 19.852 73.3854 19.0546 73.8681 18.1102C74.3507 17.1658 74.718 16.1584 74.9698 15.0881C75.2427 14.0178 75.3791 13.042 75.3791 12.1605C75.3791 11.9087 75.3581 11.6359 75.3161 11.3421C75.2951 11.0483 75.2322 10.7754 75.1272 10.5236C75.0433 10.2718 74.8964 10.0619 74.6865 9.89401C74.4976 9.70514 74.2353 9.6107 73.8995 9.6107C73.228 9.6107 72.6089 9.77859 72.0422 10.1144C71.4756 10.4502 70.9614 10.9014 70.4997 11.468C70.059 12.0136 69.6708 12.6432 69.335 13.3568C68.9992 14.0493 68.7054 14.7628 68.4536 15.4974C68.2227 16.2109 68.0548 16.9139 67.9499 17.6065C67.845 18.299 67.7925 18.8972 67.7925 19.4008Z" fill="url(#paint11_linear_411_2634)"/>
<path d="M77.7767 26.5782C78.3433 23.787 78.889 21.0587 79.4136 18.3935C79.6025 17.2602 79.8124 16.085 80.0432 14.8678C80.2741 13.6296 80.4839 12.4124 80.6728 11.2162C80.8827 9.99895 81.0715 8.8342 81.2394 7.72193C81.4283 6.58866 81.5752 5.56033 81.6801 4.63693C82.8764 4.25918 84.167 3.98636 85.5521 3.81847C86.9372 3.62959 88.3118 3.53515 89.6759 3.53515C90.4944 3.53515 91.166 3.62959 91.6906 3.81847C92.2363 4.00734 92.656 4.28017 92.9498 4.63693C93.2646 4.97272 93.485 5.37146 93.6109 5.83316C93.7368 6.29486 93.7998 6.80902 93.7998 7.37565C93.7998 8.21511 93.6529 9.04407 93.359 9.86253C93.0652 10.66 92.6665 11.426 92.1628 12.1605C91.6801 12.8741 91.1135 13.5351 90.4629 14.1437C89.8333 14.7314 89.1513 15.2141 88.4168 15.5918C88.7945 16.4313 89.1933 17.3547 89.613 18.362C90.0537 19.3484 90.4629 20.2927 90.8407 21.1952C91.2604 22.2445 91.6906 23.2938 92.1313 24.3431L87.252 26.043C86.8323 24.6999 86.4545 23.4407 86.1188 22.2655C85.9718 21.7828 85.8249 21.2896 85.678 20.7859C85.5311 20.2613 85.3947 19.7681 85.2688 19.3064C85.1429 18.8447 85.038 18.4355 84.954 18.0787C84.8701 17.7009 84.8176 17.3966 84.7966 17.1658L84.3874 17.2917C84.2615 17.9633 84.1041 18.7503 83.9152 19.6527C83.7473 20.5551 83.5899 21.426 83.443 22.2655C83.2541 23.2518 83.0652 24.2487 82.8764 25.256L77.7767 26.5782ZM85.1744 12.916C85.5731 12.8741 86.0558 12.7062 86.6224 12.4124C87.21 12.1186 87.7662 11.7723 88.2908 11.3736C88.8155 10.9538 89.2667 10.5236 89.6445 10.0829C90.0222 9.64218 90.2111 9.25393 90.2111 8.91815C90.2111 8.6873 90.1376 8.50892 89.9907 8.383C89.8438 8.23609 89.634 8.13116 89.3611 8.0682C89.1093 7.98426 88.826 7.93179 88.5112 7.91081C88.1964 7.88982 87.8711 7.87932 87.5353 7.87932C87.3045 7.87932 87.0631 7.88982 86.8113 7.91081C86.5805 7.91081 86.3706 7.91081 86.1817 7.91081L85.1744 12.916Z" fill="url(#paint12_linear_411_2634)"/>
<path d="M93.4955 26.83C93.7684 23.8919 94.0202 21.0063 94.251 18.1731C94.356 16.9979 94.4504 15.7597 94.5344 14.4585C94.6393 13.1574 94.7232 11.8772 94.7862 10.618C94.8701 9.33788 94.9331 8.11017 94.9751 6.93494C95.017 5.73872 95.0485 4.64743 95.0695 3.66107C95.5732 3.66107 96.1083 3.65058 96.675 3.62959C97.2626 3.6086 97.7872 3.58762 98.2489 3.56663C98.7316 3.54565 99.1409 3.52466 99.4766 3.50367C99.8124 3.4617 99.9803 3.44071 99.9803 3.44071C99.7495 5.87513 99.5501 7.87933 99.3822 9.4533C99.2143 11.0063 99.0779 12.276 98.973 13.2623C98.889 14.2277 98.8051 15.1616 98.7211 16.064C98.6582 16.9664 98.5847 17.8059 98.5008 18.5824C98.4168 19.3589 98.3434 20.0199 98.2804 20.5656H98.8471L102.373 3.81847C102.939 3.79748 103.517 3.766 104.104 3.72403C104.629 3.68206 105.174 3.65058 105.741 3.62959C106.329 3.6086 106.864 3.56663 107.347 3.50367C107.053 4.42707 106.748 5.44491 106.434 6.55718C106.14 7.66946 105.825 8.82371 105.489 10.0199C105.174 11.2162 104.86 12.4334 104.545 13.6716C104.251 14.9098 103.957 16.106 103.663 17.2602C102.992 19.9675 102.32 22.7482 101.649 25.6023L93.4955 26.83Z" fill="url(#paint13_linear_411_2634)"/>
<path d="M103.818 26.5782L107.942 4.19622L117.889 3.34627C117.742 3.80797 117.616 4.28017 117.511 4.76285C117.407 5.16159 117.302 5.58132 117.197 6.02203C117.113 6.44176 117.039 6.81951 116.976 7.1553C116.766 7.17628 116.462 7.19727 116.063 7.21825C115.686 7.21825 115.276 7.22875 114.836 7.24973C114.395 7.24973 113.944 7.24973 113.482 7.24973C113.041 7.24973 112.653 7.24973 112.317 7.24973L111.216 12.8846C111.866 12.8426 112.475 12.8111 113.041 12.7901C113.503 12.7691 113.975 12.7587 114.458 12.7587C114.941 12.7587 115.297 12.7482 115.528 12.7272C115.444 13.3148 115.36 13.8919 115.276 14.4585C115.213 15.0252 115.13 15.6023 115.025 16.1899C114.815 16.2109 114.468 16.2319 113.986 16.2529C113.524 16.2529 113.052 16.2634 112.569 16.2844C112.024 16.3053 111.425 16.3263 110.775 16.3473L109.705 22.1395L114.301 21.4155L113.986 25.0042L103.818 26.5782Z" fill="url(#paint14_linear_411_2634)"/>
<path d="M114.421 26.5782C114.987 23.787 115.533 21.0587 116.058 18.3935C116.247 17.2602 116.456 16.085 116.687 14.8678C116.918 13.6296 117.128 12.4124 117.317 11.2162C117.527 9.99895 117.716 8.8342 117.884 7.72193C118.072 6.58866 118.219 5.56033 118.324 4.63693C119.52 4.25918 120.811 3.98636 122.196 3.81847C123.581 3.62959 124.956 3.53515 126.32 3.53515C127.139 3.53515 127.81 3.62959 128.335 3.81847C128.88 4.00734 129.3 4.28017 129.594 4.63693C129.909 4.97272 130.129 5.37146 130.255 5.83316C130.381 6.29486 130.444 6.80902 130.444 7.37565C130.444 8.21511 130.297 9.04407 130.003 9.86253C129.709 10.66 129.311 11.426 128.807 12.1605C128.324 12.8741 127.758 13.5351 127.107 14.1437C126.477 14.7314 125.795 15.2141 125.061 15.5918C125.439 16.4313 125.837 17.3547 126.257 18.362C126.698 19.3484 127.107 20.2927 127.485 21.1952C127.905 22.2445 128.335 23.2938 128.775 24.3431L123.896 26.043C123.476 24.6999 123.099 23.4407 122.763 22.2655C122.616 21.7828 122.469 21.2896 122.322 20.7859C122.175 20.2613 122.039 19.7681 121.913 19.3064C121.787 18.8447 121.682 18.4355 121.598 18.0787C121.514 17.7009 121.462 17.3966 121.441 17.1658L121.032 17.2917C120.906 17.9633 120.748 18.7503 120.559 19.6527C120.391 20.5551 120.234 21.426 120.087 22.2655C119.898 23.2518 119.709 24.2487 119.52 25.256L114.421 26.5782ZM121.818 12.916C122.217 12.8741 122.7 12.7062 123.267 12.4124C123.854 12.1186 124.41 11.7723 124.935 11.3736C125.46 10.9538 125.911 10.5236 126.289 10.0829C126.666 9.64218 126.855 9.25393 126.855 8.91815C126.855 8.6873 126.782 8.50892 126.635 8.383C126.488 8.23609 126.278 8.13116 126.005 8.0682C125.753 7.98426 125.47 7.93179 125.155 7.91081C124.841 7.88982 124.515 7.87932 124.179 7.87932C123.949 7.87932 123.707 7.88982 123.455 7.91081C123.225 7.91081 123.015 7.91081 122.826 7.91081L121.818 12.916Z" fill="url(#paint15_linear_411_2634)"/>
<path d="M142.228 18.7712C142.228 19.9465 141.997 21.0168 141.535 21.9821C141.095 22.9265 140.486 23.745 139.709 24.4376C138.954 25.1301 138.052 25.6653 137.002 26.043C135.974 26.4208 134.862 26.6096 133.665 26.6096C132.826 26.6096 131.986 26.3893 131.147 25.9486C130.308 25.4869 129.5 24.7628 128.723 23.7765L131.053 19.212C131.199 19.4848 131.42 19.7681 131.714 20.0619C132.007 20.3347 132.333 20.5761 132.689 20.7859C133.067 20.9958 133.435 21.1742 133.791 21.3211C134.169 21.447 134.505 21.51 134.799 21.51C135.05 21.51 135.313 21.468 135.586 21.384C135.858 21.3001 136.11 21.1742 136.341 21.0063C136.572 20.8384 136.75 20.6495 136.876 20.4397C137.023 20.2088 137.097 19.9465 137.097 19.6527C137.097 19.149 136.929 18.6873 136.593 18.2676C136.278 17.8269 135.879 17.4176 135.397 17.0399C134.914 16.6411 134.389 16.2424 133.823 15.8436C133.256 15.4449 132.731 15.0252 132.249 14.5845C131.787 14.1437 131.388 13.6506 131.053 13.1049C130.717 12.5593 130.549 11.9507 130.549 11.2791C130.549 10.1878 130.874 9.16999 131.525 8.2256C132.175 7.28121 132.983 6.47324 133.949 5.80168C134.935 5.10913 136.005 4.56348 137.16 4.16474C138.314 3.766 139.405 3.56663 140.433 3.56663C141 3.56663 141.535 3.64008 142.039 3.78699C142.543 3.91291 142.973 4.13326 143.33 4.44806C143.707 4.74187 144.001 5.11962 144.211 5.58132C144.442 6.04302 144.557 6.62014 144.557 7.31269C144.557 7.6065 144.526 7.90031 144.463 8.19412C144.421 8.48793 144.379 8.80272 144.337 9.13851L139.772 10.4606C139.814 10.2928 139.846 10.1249 139.867 9.95697C139.909 9.78908 139.93 9.62119 139.93 9.4533C139.93 8.82371 139.814 8.3725 139.584 8.09968C139.374 7.80587 139.09 7.65897 138.734 7.65897C138.566 7.65897 138.356 7.72193 138.104 7.84784C137.873 7.97376 137.632 8.14166 137.38 8.35152C137.149 8.5404 136.95 8.77125 136.782 9.04407C136.614 9.31689 136.53 9.6107 136.53 9.92549C136.53 10.4292 136.666 10.8489 136.939 11.1847C137.233 11.5205 137.59 11.8353 138.01 12.1291C138.429 12.4229 138.88 12.7272 139.363 13.042C139.867 13.3358 140.329 13.724 140.748 14.2067C141.168 14.6894 141.514 15.298 141.787 16.0325C142.081 16.7461 142.228 17.659 142.228 18.7712Z" fill="url(#paint16_linear_411_2634)"/>
<path d="M142.061 26.5782L146.184 4.19622L156.132 3.34627C155.985 3.80797 155.859 4.28017 155.754 4.76285C155.649 5.16159 155.544 5.58132 155.439 6.02203C155.355 6.44176 155.282 6.81951 155.219 7.1553C155.009 7.17628 154.705 7.19727 154.306 7.21825C153.928 7.21825 153.519 7.22875 153.078 7.24973C152.638 7.24973 152.186 7.24973 151.725 7.24973C151.284 7.24973 150.896 7.24973 150.56 7.24973L149.458 12.8846C150.109 12.8426 150.717 12.8111 151.284 12.7901C151.746 12.7691 152.218 12.7587 152.701 12.7587C153.183 12.7587 153.54 12.7482 153.771 12.7272C153.687 13.3148 153.603 13.8919 153.519 14.4585C153.456 15.0252 153.372 15.6023 153.267 16.1899C153.057 16.2109 152.711 16.2319 152.228 16.2529C151.767 16.2529 151.295 16.2634 150.812 16.2844C150.266 16.3053 149.668 16.3263 149.018 16.3473L147.947 22.1395L152.543 21.4155L152.228 25.0042L142.061 26.5782Z" fill="url(#paint17_linear_411_2634)"/>
<defs>
<linearGradient id="paint0_linear_411_2634" x1="94.9071" y1="2.70522" x2="92.273" y2="28.1195" gradientUnits="userSpaceOnUse">
<stop stop-color="#40FF81"/>
<stop offset="1" stop-color="#02AC57"/>
</linearGradient>
<linearGradient id="paint1_linear_411_2634" x1="94.9071" y1="2.70522" x2="92.273" y2="28.1195" gradientUnits="userSpaceOnUse">
<stop stop-color="#40FF81"/>
<stop offset="1" stop-color="#02AC57"/>
</linearGradient>
<linearGradient id="paint2_linear_411_2634" x1="94.9071" y1="2.70522" x2="92.273" y2="28.1195" gradientUnits="userSpaceOnUse">
<stop stop-color="#40FF81"/>
<stop offset="1" stop-color="#02AC57"/>
</linearGradient>
<linearGradient id="paint3_linear_411_2634" x1="94.9071" y1="2.70522" x2="92.273" y2="28.1195" gradientUnits="userSpaceOnUse">
<stop stop-color="#40FF81"/>
<stop offset="1" stop-color="#02AC57"/>
</linearGradient>
<linearGradient id="paint4_linear_411_2634" x1="94.9071" y1="2.70522" x2="92.273" y2="28.1195" gradientUnits="userSpaceOnUse">
<stop stop-color="#40FF81"/>
<stop offset="1" stop-color="#02AC57"/>
</linearGradient>
<linearGradient id="paint5_linear_411_2634" x1="94.9071" y1="2.70522" x2="92.273" y2="28.1195" gradientUnits="userSpaceOnUse">
<stop stop-color="#40FF81"/>
<stop offset="1" stop-color="#02AC57"/>
</linearGradient>
<linearGradient id="paint6_linear_411_2634" x1="94.9071" y1="2.70522" x2="92.273" y2="28.1195" gradientUnits="userSpaceOnUse">
<stop stop-color="#40FF81"/>
<stop offset="1" stop-color="#02AC57"/>
</linearGradient>
<linearGradient id="paint7_linear_411_2634" x1="94.9071" y1="2.70522" x2="92.273" y2="28.1195" gradientUnits="userSpaceOnUse">
<stop stop-color="#40FF81"/>
<stop offset="1" stop-color="#02AC57"/>
</linearGradient>
<linearGradient id="paint8_linear_411_2634" x1="94.9071" y1="2.70522" x2="92.273" y2="28.1195" gradientUnits="userSpaceOnUse">
<stop stop-color="#40FF81"/>
<stop offset="1" stop-color="#02AC57"/>
</linearGradient>
<linearGradient id="paint9_linear_411_2634" x1="94.9071" y1="2.70522" x2="92.273" y2="28.1195" gradientUnits="userSpaceOnUse">
<stop stop-color="#40FF81"/>
<stop offset="1" stop-color="#02AC57"/>
</linearGradient>
<linearGradient id="paint10_linear_411_2634" x1="94.9071" y1="2.70522" x2="92.273" y2="28.1195" gradientUnits="userSpaceOnUse">
<stop stop-color="#40FF81"/>
<stop offset="1" stop-color="#02AC57"/>
</linearGradient>
<linearGradient id="paint11_linear_411_2634" x1="94.9071" y1="2.70522" x2="92.273" y2="28.1195" gradientUnits="userSpaceOnUse">
<stop stop-color="#40FF81"/>
<stop offset="1" stop-color="#02AC57"/>
</linearGradient>
<linearGradient id="paint12_linear_411_2634" x1="94.9071" y1="2.70522" x2="92.273" y2="28.1195" gradientUnits="userSpaceOnUse">
<stop stop-color="#40FF81"/>
<stop offset="1" stop-color="#02AC57"/>
</linearGradient>
<linearGradient id="paint13_linear_411_2634" x1="94.9071" y1="2.70522" x2="92.273" y2="28.1195" gradientUnits="userSpaceOnUse">
<stop stop-color="#40FF81"/>
<stop offset="1" stop-color="#02AC57"/>
</linearGradient>
<linearGradient id="paint14_linear_411_2634" x1="94.9071" y1="2.70522" x2="92.273" y2="28.1195" gradientUnits="userSpaceOnUse">
<stop stop-color="#40FF81"/>
<stop offset="1" stop-color="#02AC57"/>
</linearGradient>
<linearGradient id="paint15_linear_411_2634" x1="94.9071" y1="2.70522" x2="92.273" y2="28.1195" gradientUnits="userSpaceOnUse">
<stop stop-color="#40FF81"/>
<stop offset="1" stop-color="#02AC57"/>
</linearGradient>
<linearGradient id="paint16_linear_411_2634" x1="94.9071" y1="2.70522" x2="92.273" y2="28.1195" gradientUnits="userSpaceOnUse">
<stop stop-color="#40FF81"/>
<stop offset="1" stop-color="#02AC57"/>
</linearGradient>
<linearGradient id="paint17_linear_411_2634" x1="94.9071" y1="2.70522" x2="92.273" y2="28.1195" gradientUnits="userSpaceOnUse">
<stop stop-color="#40FF81"/>
<stop offset="1" stop-color="#02AC57"/>
</linearGradient>
</defs>
</svg>
