<svg width="24" height="24" viewBox="0 0 24 24" fill="none" xmlns="http://www.w3.org/2000/svg">
<path d="M23.6634 22.0688L19.1891 17.7003C20.9027 15.7558 21.8411 13.3052 21.8411 10.7081C21.8411 7.84462 20.6987 5.16759 18.6451 3.14317C16.5916 1.11876 13.8445 0 10.9341 0C8.0102 0 5.27667 1.11876 3.20952 3.12986C1.14237 5.15427 0 7.84462 0 10.7081C0 13.5716 1.14237 16.2486 3.19592 18.273C5.26307 20.2974 8.0102 21.4029 10.9205 21.4029C13.3277 21.4029 15.626 20.6437 17.5164 19.2453L22.0314 23.667C22.249 23.8801 22.5482 24 22.8474 24C23.1466 24 23.4322 23.8935 23.6634 23.667C24.1122 23.2275 24.1122 22.5083 23.6634 22.0688ZM2.29834 10.7081C2.29834 6.04661 6.17425 2.26415 10.9205 2.26415C15.6804 2.26415 19.5427 6.05993 19.5427 10.7081C19.5427 15.3696 15.6804 19.1521 10.9205 19.1521C6.16065 19.1521 2.29834 15.3563 2.29834 10.7081Z" fill="white"/>
</svg>
