<svg width="14" height="14" viewBox="0 0 14 14" fill="none" xmlns="http://www.w3.org/2000/svg">
<path d="M7.0038 10C7.59693 10 8.17673 9.8235 8.6699 9.49282C9.16307 9.16214 9.54744 8.69213 9.77442 8.14223C10.0014 7.59233 10.0608 6.98723 9.94508 6.40345C9.82936 5.81968 9.54375 5.28345 9.12434 4.86258C8.70494 4.4417 8.17059 4.15508 7.58886 4.03896C7.00713 3.92284 6.40415 3.98243 5.85617 4.21021C5.30819 4.43799 4.83983 4.82372 4.5103 5.31861C4.18078 5.81351 4.0049 6.39536 4.0049 6.99057C4.00738 7.78795 4.32413 8.55197 4.886 9.11581C5.44786 9.67965 6.2092 9.99751 7.0038 10ZM9.74146e-05 6.99057C-0.000664399 6.49344 0.0465608 5.99742 0.141112 5.50943C0.559743 5.46318 0.961118 5.31643 1.31129 5.08162C1.66147 4.8468 1.95015 4.53081 2.15291 4.16038C2.36902 3.77233 2.491 3.33865 2.50896 2.89447C2.52693 2.4503 2.44038 2.00813 2.25632 1.60377C3.00004 0.878999 3.89634 0.330943 4.87919 0C5.1117 0.36219 5.43104 0.660059 5.80797 0.866331C6.1849 1.0726 6.60737 1.18069 7.0367 1.18069C7.46604 1.18069 7.88851 1.0726 8.26544 0.866331C8.64237 0.660059 8.96171 0.36219 9.19422 0C10.1753 0.338023 11.0684 0.892505 11.8077 1.62264C11.6296 2.02594 11.5479 2.46543 11.5691 2.90604C11.5903 3.34666 11.7139 3.7762 11.9299 4.16038C12.1278 4.51486 12.4047 4.81856 12.739 5.0477C13.0734 5.27684 13.4561 5.42519 13.8571 5.48113C14.0651 6.54858 14.0458 7.64808 13.8007 8.70755C13.4057 8.77404 13.031 8.93012 12.7051 9.16391C12.3793 9.39769 12.111 9.703 11.9205 10.0566C11.7254 10.4072 11.6069 10.7955 11.5729 11.1957C11.5388 11.5958 11.59 11.9986 11.7231 12.3774C10.9621 13.1172 10.0423 13.6722 9.0344 14C8.79529 13.6923 8.48938 13.4433 8.13995 13.2721C7.79052 13.1008 7.40677 13.0118 7.0179 13.0118C6.62903 13.0118 6.24529 13.1008 5.89586 13.2721C5.54642 13.4433 5.24052 13.6923 5.0014 14C3.99668 13.6839 3.0771 13.1418 2.31273 12.4151C2.45709 12.0296 2.51589 11.6172 2.48504 11.2066C2.45419 10.796 2.33443 10.3971 2.13411 10.0377C1.93789 9.67271 1.65848 9.35938 1.31867 9.1233C0.978854 8.88722 0.588256 8.73507 0.178715 8.67925C0.0571481 8.12471 -0.00275752 7.55836 9.74146e-05 6.99057Z" fill="#909791"/>
</svg>
