<svg width="16" height="12" viewBox="0 0 16 12" fill="none" xmlns="http://www.w3.org/2000/svg">
<path d="M13.545 0.994906C12.525 0.534906 11.4317 0.194906 10.2883 0.00157291C10.2781 -0.000381813 10.2676 0.000877881 10.2582 0.0051778C10.2487 0.00947772 10.2409 0.0166051 10.2357 0.0255729C10.0957 0.271573 9.93965 0.59224 9.83032 0.845573C8.61772 0.664397 7.38492 0.664397 6.17232 0.845573C6.05054 0.564813 5.91322 0.291056 5.76099 0.0255729C5.75583 0.0164947 5.74802 0.00920608 5.73861 0.00467966C5.7292 0.000153242 5.71863 -0.00139574 5.70832 0.000239515C4.56565 0.193573 3.47232 0.533573 2.45165 0.99424C2.44287 0.997923 2.43543 1.0042 2.43032 1.01224C0.355654 4.06224 -0.213013 7.03691 0.0663204 9.97424C0.0670977 9.98143 0.0693308 9.98839 0.0728837 9.9947C0.0764366 10.001 0.0812351 10.0065 0.0869871 10.0109C1.29792 10.8925 2.64855 11.5641 4.08232 11.9976C4.09232 12.0006 4.10301 12.0006 4.113 11.9975C4.12299 11.9945 4.13181 11.9884 4.13832 11.9802C4.44632 11.5669 4.72099 11.1302 4.95565 10.6716C4.96965 10.6449 4.95632 10.6129 4.92832 10.6022C4.49766 10.4401 4.08038 10.2443 3.68032 10.0169C3.67313 10.0128 3.66707 10.007 3.66269 9.99996C3.65831 9.99294 3.65574 9.98494 3.65521 9.97668C3.65468 9.96842 3.65621 9.96015 3.65966 9.95263C3.66312 9.94511 3.66838 9.93856 3.67499 9.93357C3.75899 9.87157 3.84299 9.80691 3.92299 9.74224C3.93019 9.73642 3.93886 9.73272 3.94804 9.73154C3.95722 9.73037 3.96655 9.73176 3.97499 9.73557C6.59299 10.9116 9.42832 10.9116 12.0157 9.73557C12.0241 9.73154 12.0335 9.72996 12.0428 9.73102C12.0522 9.73208 12.061 9.73574 12.0683 9.74157C12.1483 9.8069 12.2317 9.87157 12.3163 9.93357C12.323 9.93845 12.3283 9.94491 12.3319 9.95237C12.3355 9.95983 12.3371 9.96806 12.3367 9.97631C12.3363 9.98457 12.3339 9.9926 12.3296 9.99968C12.3254 10.0068 12.3194 10.0127 12.3123 10.0169C11.9137 10.2462 11.499 10.4402 11.0637 10.6016C11.057 10.604 11.0509 10.6078 11.0458 10.6128C11.0407 10.6178 11.0367 10.6238 11.0341 10.6304C11.0316 10.637 11.0304 10.6441 11.0308 10.6512C11.0312 10.6583 11.033 10.6653 11.0363 10.6716C11.2763 11.1296 11.551 11.5656 11.853 11.9796C11.8593 11.9881 11.868 11.9944 11.878 11.9978C11.8881 12.0011 11.8989 12.0013 11.909 11.9982C13.3452 11.566 14.6981 10.8941 15.9103 10.0109C15.9162 10.0068 15.9212 10.0014 15.9249 9.99521C15.9286 9.989 15.9309 9.98208 15.9317 9.97491C16.265 6.57891 15.373 3.62824 13.5657 1.01357C13.5612 1.00508 13.5539 0.998452 13.545 0.994906ZM5.34699 8.18557C4.55899 8.18557 3.90899 7.47291 3.90899 6.59891C3.90899 5.72424 4.54632 5.01224 5.34699 5.01224C6.15365 5.01224 6.79765 5.73024 6.78499 6.59891C6.78499 7.47357 6.14765 8.18557 5.34699 8.18557ZM10.6637 8.18557C9.87499 8.18557 9.22565 7.47291 9.22565 6.59891C9.22565 5.72424 9.86232 5.01224 10.6637 5.01224C11.4703 5.01224 12.1143 5.73024 12.1017 6.59891C12.1017 7.47357 11.471 8.18557 10.6637 8.18557Z" fill="#8187F3"/>
</svg>
