<svg width="14" height="16" viewBox="0 0 14 16" fill="none" xmlns="http://www.w3.org/2000/svg">
<path d="M11.4533 5.22827C12.8596 5.22827 13.9991 4.07029 13.9991 2.64217C13.9991 2.63312 13.9961 2.62311 13.9961 2.61406C13.9961 2.6031 13.9991 2.59421 13.9991 2.58514C13.9991 1.15702 12.8597 0 11.4533 0C10.0478 0 8.90833 1.15704 8.90833 2.58514C8.90833 2.59718 8.91018 2.60609 8.91018 2.61811C8.91018 2.62718 8.90833 2.63515 8.90833 2.64217C8.90833 2.84514 8.94019 3.03921 8.98597 3.22718L4.33286 6.34732C3.87276 5.8864 3.2419 5.60123 2.54614 5.60123C1.13947 5.60123 0 6.75843 0 8.18655C0 8.19654 0.00272123 8.20561 0.00272123 8.2156C0.00272123 8.2256 0 8.23468 0 8.24344C0 9.67156 1.13947 10.8297 2.54614 10.8297C3.29619 10.8297 3.96404 10.4928 4.4299 9.96873L8.91319 13.3159C8.91107 13.33 8.90922 13.3428 8.90922 13.3578C8.90922 13.3669 8.91196 13.3769 8.91196 13.3859C8.91105 13.3959 8.90922 13.4059 8.90922 13.415C8.90922 14.8428 10.0487 16 11.4542 16C12.8605 16 14 14.8428 14 13.415C14 13.405 13.997 13.395 13.997 13.3859C13.997 13.3769 14 13.3659 14 13.3578C14 11.9297 12.8605 10.7715 11.4542 10.7715C10.5437 10.7715 9.75056 11.2616 9.30139 11.9919L5.02285 8.79936C5.06289 8.61967 5.09078 8.43656 5.09078 8.24437C5.09078 8.23561 5.08895 8.22749 5.08895 8.21937C5.08895 8.20843 5.09078 8.19843 5.09078 8.1875C5.09078 7.95359 5.04831 7.73049 4.98888 7.51547L9.60984 4.41626C10.073 4.91326 10.7254 5.22827 11.4533 5.22827Z" fill="white"/>
</svg>
