<svg width="50" height="50" viewBox="0 0 50 50" fill="none" xmlns="http://www.w3.org/2000/svg">
<g clip-path="url(#clip0_451_3533)">
<path d="M0.0153809 24.9809C0.0153809 31.6063 2.64729 37.9603 7.33212 42.6451C12.017 47.3299 18.3709 49.9618 24.9963 49.9618C31.6217 49.9618 37.9756 47.3299 42.6605 42.6451C47.3453 37.9603 49.9772 31.6063 49.9772 24.9809C49.9772 18.3556 47.3453 12.0016 42.6605 7.31674C37.9756 2.63191 31.6217 0 24.9963 0C18.3709 0 12.017 2.63191 7.33212 7.31674C2.64729 12.0016 0.0153809 18.3556 0.0153809 24.9809Z" fill="#3A5A98"/>
<path d="M42.6678 7.35352C52.4235 17.1092 52.4239 32.9269 42.6674 42.6833C32.9113 52.4389 17.0933 52.4389 7.33765 42.6833L42.6678 7.35352Z" fill="#345387"/>
<path d="M49.8155 27.7946L31.745 9.72375L22.3629 19.1059L22.9218 19.6648L17.5801 25.0062L21.9523 29.3783L21.3772 29.9531L26.1107 34.6865L20.6537 40.1435L29.9759 49.4657C40.4881 47.3383 48.6025 38.6106 49.8155 27.7946Z" fill="#2E4D72"/>
<path d="M20.6289 15.701V19.8905H17.5596V25.0137H20.6289V40.2365H26.9338V25.0137H31.1647C31.1647 25.0137 31.5611 22.5566 31.7529 19.8712H26.9579V16.368C26.9579 15.8449 27.645 15.1408 28.3246 15.1408H31.7599V9.80737H27.0892C20.4727 9.80706 20.6289 14.935 20.6289 15.701Z" fill="white"/>
</g>
<defs>
<clipPath id="clip0_451_3533">
<rect width="50" height="50" fill="white"/>
</clipPath>
</defs>
</svg>
