<svg width="51" height="50" viewBox="0 0 51 50" fill="none" xmlns="http://www.w3.org/2000/svg">
<path d="M25.986 0C12.1371 0 0.806152 11.1511 0.806152 25C0.806152 38.8489 12.1371 50 25.8062 50C39.6551 50 50.8062 38.6691 50.8062 25C50.8062 11.3309 39.6551 0 25.986 0ZM19.3313 24.8201C18.7918 25.3597 17.7126 25.3597 16.9932 24.8201L15.7342 23.3813L15.0148 22.8417C13.9356 21.5827 13.2162 20.1439 13.0364 18.5252C13.0364 16.9065 13.5759 15.2878 14.6551 14.2086C15.9141 13.1295 17.3529 12.5899 18.9716 12.5899C20.5903 12.5899 22.3889 13.3094 23.6479 14.5683L28.504 19.4245C29.763 20.6835 30.4824 22.3022 30.4824 23.9209C30.4824 25.3597 29.9428 26.7986 28.8637 27.8777C28.3241 28.4173 27.245 28.4173 26.5256 27.8777C25.986 27.3381 25.986 26.259 26.5256 25.7194C27.6047 24.6403 27.4249 22.8417 26.3457 21.5827L21.4896 16.7266C20.7702 16.0072 20.0508 15.6475 19.1515 15.6475C18.6119 15.6475 17.8925 15.8273 17.3529 16.3669C16.6335 17.0863 16.6335 17.8058 16.6335 18.3453C16.6335 19.0647 16.9932 19.964 17.7126 20.5036L18.4321 21.223L19.691 22.482C19.8709 23.2014 19.8709 24.1007 19.3313 24.8201ZM36.5975 36.1511C35.5184 37.2302 34.0795 37.7698 32.4608 37.7698C30.8421 37.7698 29.0436 37.0504 27.7846 35.7914L22.9285 30.9353C21.6695 29.6763 20.95 28.0576 20.95 26.4389C20.95 25 21.4896 23.5612 22.5687 22.482C23.1083 21.9424 24.1874 21.9424 24.9069 22.482C25.4464 23.0216 25.4464 24.1007 24.9069 24.6403C23.8277 25.7194 24.0076 27.518 25.0867 28.777L29.9428 33.6331C30.6623 34.3525 31.3817 34.7122 32.281 34.7122C32.8205 34.7122 33.54 34.5324 34.0795 33.9928C34.799 33.2734 34.799 32.554 34.799 32.0144C34.799 31.295 34.4392 30.3957 33.7198 29.8561L32.281 28.4173L31.7414 27.8777C31.2018 27.3381 31.2018 26.259 31.7414 25.7194C32.281 25.1799 33.3601 25.1799 34.0795 25.7194L34.799 26.4389L35.8781 27.518C37.1371 28.5971 37.8565 30.2158 37.8565 31.6547C38.3961 33.4532 37.6767 34.8921 36.5975 36.1511Z" fill="#27C9BF"/>
</svg>
