<svg width="50" height="50" viewBox="0 0 50 50" fill="none" xmlns="http://www.w3.org/2000/svg">
<circle cx="25" cy="25" r="25" fill="#23B2EF"/>
<path d="M39.6193 16.8562C38.5301 17.3388 37.36 17.6649 36.1299 17.8123C37.3991 17.0529 38.3487 15.8575 38.8014 14.4494C37.609 15.1577 36.3038 15.6563 34.9428 15.9235C34.0276 14.9462 32.8153 14.2985 31.4942 14.0809C30.1731 13.8632 28.8171 14.0878 27.6368 14.7198C26.4564 15.3517 25.5177 16.3557 24.9664 17.5758C24.4151 18.796 24.2821 20.164 24.5879 21.4675C22.1716 21.3462 19.8078 20.7181 17.65 19.6241C15.4921 18.5301 13.5884 16.9946 12.0624 15.1173C11.5406 16.0174 11.2406 17.061 11.2406 18.1724C11.24 19.1729 11.4864 20.1581 11.9579 21.0406C12.4294 21.923 13.1114 22.6755 13.9434 23.2311C12.9785 23.2004 12.0348 22.9397 11.191 22.4706V22.5489C11.1909 23.9522 11.6763 25.3122 12.5648 26.3984C13.4534 27.4845 14.6903 28.2298 16.0658 28.5077C15.1706 28.75 14.2321 28.7857 13.3212 28.6121C13.7093 29.8195 14.4652 30.8754 15.4832 31.6318C16.5011 32.3883 17.7302 32.8075 18.9983 32.8307C16.8457 34.5206 14.1872 35.4372 11.4506 35.4331C10.9658 35.4333 10.4814 35.405 10 35.3484C12.7778 37.1344 16.0115 38.0823 19.3139 38.0786C30.4933 38.0786 36.6047 28.8195 36.6047 20.7891C36.6047 20.5283 36.5982 20.2647 36.5864 20.0039C37.7752 19.1442 38.8013 18.0796 39.6167 16.8601L39.6193 16.8562Z" fill="white"/>
</svg>
