<svg width="20" height="17" viewBox="0 0 20 17" fill="none" xmlns="http://www.w3.org/2000/svg">
<path d="M1.30649 17C1.15647 17 1.00401 16.9741 0.854964 16.9202C0.331117 16.7317 -0.00459476 16.2503 4.75378e-05 15.6947C0.0225261 12.9769 0.925821 4.07615 11.6004 3.64055L11.586 1.67449C11.586 0.97085 12.0124 0.356474 12.6721 0.109162C13.331 -0.138637 14.0584 0.0435537 14.5226 0.573298L19.5837 6.34731C20.152 6.99584 20.1369 7.9602 19.5478 8.58995L14.4867 14.003C14.0142 14.5088 13.2924 14.672 12.6469 14.4176C12.0024 14.164 11.5858 13.553 11.5858 12.8616V10.8272C10.0856 10.976 6.15672 11.8167 2.31338 16.5168C2.05732 16.83 1.6896 17 1.30649 17ZM13.2565 1.67913L13.2682 3.65055C13.2682 4.54931 12.566 5.28173 11.6691 5.31807C3.69263 5.64391 2.0192 11.2711 1.73358 14.6125C5.75162 10.1604 9.81387 9.31505 11.4372 9.16115C11.9063 9.11749 12.3723 9.27237 12.7195 9.58749C13.0684 9.90406 13.2682 10.3558 13.2682 10.8272V12.8616L18.3178 7.44412L13.2565 1.67913Z" fill="white"/>
</svg>
