<svg width="16" height="14" viewBox="0 0 16 14" fill="none" xmlns="http://www.w3.org/2000/svg">
<path d="M15.7618 2.29133C15.2052 2.538 14.6072 2.70467 13.9785 2.78C14.6272 2.39186 15.1125 1.78098 15.3438 1.06133C14.7344 1.42333 14.0674 1.67813 13.3718 1.81467C12.9041 1.31524 12.2846 0.984218 11.6094 0.872983C10.9342 0.761748 10.2412 0.876528 9.638 1.1995C9.03477 1.52248 8.55503 2.03557 8.27328 2.65914C7.99153 3.2827 7.92354 3.98183 8.07985 4.648C6.84497 4.586 5.63693 4.26503 4.53413 3.70594C3.43133 3.14684 2.45841 2.36211 1.67851 1.40267C1.41185 1.86267 1.25851 2.396 1.25851 2.964C1.25821 3.47533 1.38413 3.97883 1.6251 4.42982C1.86606 4.88081 2.21462 5.26536 2.63985 5.54933C2.1467 5.53364 1.66443 5.40039 1.23318 5.16067V5.20067C1.23313 5.91783 1.4812 6.61292 1.9353 7.168C2.3894 7.72308 3.02156 8.10395 3.72451 8.246C3.26703 8.36981 2.7874 8.38805 2.32185 8.29933C2.52018 8.91641 2.90651 9.45602 3.42676 9.84262C3.947 10.2292 4.57512 10.4435 5.22318 10.4553C4.12307 11.3189 2.76444 11.7874 1.36585 11.7853C1.1181 11.7854 0.870563 11.7709 0.624512 11.742C2.04416 12.6548 3.69674 13.1392 5.38451 13.1373C11.0978 13.1373 14.2212 8.40533 14.2212 4.30133C14.2212 4.168 14.2178 4.03333 14.2118 3.9C14.8194 3.46065 15.3438 2.9166 15.7605 2.29333L15.7618 2.29133Z" fill="#23B2EF"/>
</svg>
