<svg width="16" height="12" viewBox="0 0 16 12" fill="none" xmlns="http://www.w3.org/2000/svg">
<path d="M6.66667 3.73529V8.26471L10.6667 5.99224L6.66667 3.73529ZM15.84 9.12724C15.84 9.12724 15.6833 10.2046 15.204 10.6795C14.5953 11.3026 13.9133 11.3052 13.6007 11.3415C11.362 11.5 8.00333 11.5 8.00333 11.5H7.99667C7.99667 11.5 4.638 11.5 2.39933 11.3415C2.086 11.3052 1.40467 11.3026 0.795333 10.6795C0.316 10.2046 0.16 9.12659 0.16 9.12659C0.16 9.12659 0 7.86224 0 6.59724V5.40988C0 4.14424 0.16 2.87859 0.16 2.87859C0.16 2.87859 0.316 1.80124 0.795333 1.32629C1.40467 0.703176 2.204 0.723235 2.56 0.657882C3.84 0.536882 8 0.5 8 0.5C8 0.5 11.362 0.505177 13.6007 0.663059C13.914 0.699942 14.5953 0.70253 15.204 1.32565C15.684 1.80059 15.84 2.87859 15.84 2.87859C15.84 2.87859 16 4.14359 16 5.40924V6.59594C16 7.86159 15.84 9.12724 15.84 9.12724Z" fill="#FF0000"/>
</svg>
