<svg width="16" height="16" viewBox="0 0 16 16" fill="none" xmlns="http://www.w3.org/2000/svg">
<g clip-path="url(#clip0_411_3345)">
<path d="M16 8C16 12.418 12.418 16 8 16C3.58197 16 0 12.418 0 8C0 3.58197 3.58197 0 8 0C12.419 0 16 3.58197 16 8Z" fill="#2081E2"/>
<path d="M3.94698 8.26882L3.98149 8.21456L6.06261 4.95891C6.09303 4.91125 6.16453 4.91618 6.18754 4.96795C6.53522 5.74714 6.83522 6.71619 6.69467 7.31949C6.63467 7.56771 6.47029 7.90387 6.28535 8.21456C6.26152 8.25978 6.23522 8.30416 6.20727 8.3469C6.19411 8.36662 6.17192 8.37813 6.14808 8.37813H4.00779C3.95026 8.37813 3.91656 8.31566 3.94698 8.26882Z" fill="white"/>
<path d="M13.223 8.87376V9.3891C13.223 9.41869 13.2049 9.44499 13.1786 9.4565C13.0175 9.52554 12.466 9.77869 12.2367 10.0976C11.6514 10.9121 11.2043 12.0768 10.2049 12.0768H6.03522C4.55742 12.0768 3.35986 10.8752 3.35986 9.39238V9.34472C3.35986 9.30526 3.39191 9.27322 3.43137 9.27322H5.75578C5.8018 9.27322 5.8355 9.31595 5.8314 9.36115C5.81495 9.51238 5.8429 9.66691 5.91441 9.80746C6.05249 10.0877 6.33852 10.2628 6.64756 10.2628H7.79826V9.36445H6.66071C6.60236 9.36445 6.56785 9.29704 6.60154 9.24938C6.61386 9.23046 6.62785 9.21075 6.64263 9.18856C6.75031 9.03568 6.90401 8.79814 7.05689 8.52773C7.16127 8.34526 7.26236 8.15046 7.34374 7.95485C7.36018 7.9195 7.37332 7.88333 7.38647 7.84798C7.40866 7.78552 7.43169 7.72717 7.44812 7.66882C7.46457 7.61949 7.4777 7.56771 7.49086 7.51922C7.5295 7.35318 7.54593 7.1773 7.54593 6.99483C7.54593 6.92333 7.54265 6.84853 7.53607 6.77702C7.53277 6.69894 7.52292 6.62085 7.51305 6.54277C7.50647 6.47373 7.49415 6.4055 7.481 6.334C7.46457 6.22962 7.44154 6.12606 7.41524 6.02166L7.4062 5.98222C7.38647 5.9107 7.37004 5.8425 7.34703 5.77099C7.28209 5.54659 7.2073 5.32797 7.12839 5.12331C7.09962 5.04194 7.06674 4.96386 7.03386 4.88578C6.98538 4.76824 6.93605 4.66139 6.89086 4.56029C6.86785 4.51426 6.84812 4.47234 6.82839 4.4296C6.8062 4.3811 6.78319 4.33261 6.76017 4.28659C6.74374 4.25125 6.72482 4.21837 6.71167 4.18549L6.57113 3.92576C6.5514 3.89042 6.58428 3.8485 6.6229 3.85918L7.50238 4.09754H7.50484C7.50647 4.09754 7.5073 4.09837 7.50812 4.09837L7.62401 4.13042L7.75142 4.16659L7.79826 4.17973V3.65699C7.79826 3.40466 8.00045 3.2 8.25033 3.2C8.37526 3.2 8.48868 3.25096 8.57006 3.33397C8.65142 3.41699 8.70238 3.53042 8.70238 3.65699V4.4329L8.79609 4.45918C8.80348 4.46166 8.81087 4.46494 8.81745 4.46987C8.84047 4.48714 8.87333 4.51261 8.91526 4.54386C8.94813 4.57014 8.98348 4.60221 9.02622 4.63509C9.11087 4.7033 9.21198 4.79125 9.32294 4.89235C9.35252 4.91782 9.38129 4.94413 9.40759 4.97043C9.55062 5.10358 9.71089 5.25974 9.86377 5.43235C9.9065 5.48085 9.94842 5.53016 9.99116 5.58194C10.0339 5.63454 10.0791 5.68632 10.1186 5.73811C10.1703 5.80715 10.2262 5.87866 10.2747 5.95346C10.2977 5.9888 10.324 6.02496 10.3462 6.0603C10.4087 6.15482 10.4638 6.25264 10.5164 6.35045C10.5386 6.39565 10.5616 6.44496 10.5813 6.49346C10.6397 6.62414 10.6857 6.7573 10.7153 6.89045C10.7243 6.91922 10.7309 6.95045 10.7342 6.9784V6.98498C10.744 7.02442 10.7473 7.06634 10.7506 7.10907C10.7638 7.24552 10.7572 7.38195 10.7276 7.51922C10.7153 7.57758 10.6988 7.63264 10.6791 7.69101C10.6594 7.7469 10.6397 7.80525 10.6142 7.86032C10.5649 7.97456 10.5065 8.08882 10.4375 8.19566C10.4153 8.23512 10.389 8.27704 10.3627 8.3165C10.3339 8.3584 10.3043 8.39786 10.278 8.4365C10.2418 8.48581 10.2032 8.53758 10.1638 8.58362C10.1284 8.63211 10.0923 8.68061 10.0528 8.72334C9.99774 8.78827 9.94513 8.84992 9.89006 8.9091C9.85719 8.94773 9.82185 8.98718 9.78567 9.02253C9.75034 9.06197 9.71417 9.09731 9.68129 9.13019C9.62623 9.18526 9.5802 9.228 9.54156 9.26334L9.45116 9.34637C9.43801 9.35787 9.42074 9.36445 9.40266 9.36445H8.70238V10.2628H9.58348C9.78074 10.2628 9.96815 10.1929 10.1194 10.0647C10.1712 10.0195 10.3972 9.8239 10.6643 9.52883C10.6734 9.51896 10.6849 9.51157 10.698 9.50829L13.1317 8.80472C13.177 8.79157 13.223 8.82608 13.223 8.87376Z" fill="white"/>
</g>
<defs>
<clipPath id="clip0_411_3345">
<rect width="16" height="16" fill="white"/>
</clipPath>
</defs>
</svg>
