<svg width="24" height="24" viewBox="0 0 24 24" fill="none" xmlns="http://www.w3.org/2000/svg">
<path d="M15.5069 9.36409L15.14 11.0806H16.7124V13.0986H14.7076L14.2752 15.1034H12.1786L12.6111 13.0986H10.4359L10.0035 15.1034H7.90692L8.33933 13.0986H6.40002V11.0806H8.77175L9.13865 9.36409H7.23865V7.34616H9.55796L9.97727 5.40685H12.0738L11.6545 7.34616H13.8297L14.249 5.40685H16.3455L15.9262 7.34616H17.5511V9.36409H15.5069ZM13.4104 9.36409H11.2352L10.8683 11.0806H13.0435L13.4104 9.36409Z" fill="white"/>
<path d="M5.56321 18.5517L6.52673 18.8194L6.87885 17.5517H5.56321V18.5517ZM5.0994 20.2214L4.13588 19.9538H4.13588L5.0994 20.2214ZM6.59028 21.3387L6.06292 20.4891H6.06292L6.59028 21.3387ZM11.0805 18.5517V17.5517H10.7953L10.5531 17.7021L11.0805 18.5517ZM3 4C3 3.44772 3.44772 3 4 3V1C2.34315 1 1 2.34315 1 4H3ZM3 16.5517V4H1V16.5517H3ZM4 17.5517C3.44772 17.5517 3 17.104 3 16.5517H1C1 18.2086 2.34315 19.5517 4 19.5517V17.5517ZM5.56321 17.5517H4V19.5517H5.56321V17.5517ZM6.06292 20.4891L6.52673 18.8194L4.59969 18.2841L4.13588 19.9538L6.06292 20.4891ZM6.06292 20.4891L6.06292 20.4891L4.13588 19.9538C3.64833 21.709 5.56989 23.149 7.11764 22.1884L6.06292 20.4891ZM10.5531 17.7021L6.06292 20.4891L7.11764 22.1884L11.6078 19.4014L10.5531 17.7021ZM20 17.5517H11.0805V19.5517H20V17.5517ZM21 16.5517C21 17.104 20.5523 17.5517 20 17.5517V19.5517C21.6569 19.5517 23 18.2086 23 16.5517H21ZM21 4V16.5517H23V4H21ZM20 3C20.5523 3 21 3.44772 21 4H23C23 2.34315 21.6569 1 20 1V3ZM4 3H20V1H4V3Z" fill="white"/>
</svg>
