<svg width="16" height="14" viewBox="0 0 16 14" fill="none" xmlns="http://www.w3.org/2000/svg">
<path d="M15.7618 2.29134C15.2052 2.53801 14.6072 2.70468 13.9785 2.78001C14.6272 2.39187 15.1125 1.78099 15.3438 1.06134C14.7344 1.42334 14.0674 1.67814 13.3718 1.81468C12.9041 1.31525 12.2846 0.984228 11.6094 0.872993C10.9342 0.761759 10.2412 0.876538 9.638 1.19951C9.03477 1.52249 8.55503 2.03559 8.27328 2.65915C7.99153 3.28271 7.92354 3.98184 8.07985 4.64801C6.84497 4.58601 5.63693 4.26504 4.53413 3.70595C3.43133 3.14685 2.45841 2.36212 1.67851 1.40268C1.41185 1.86268 1.25851 2.39601 1.25851 2.96401C1.25821 3.47534 1.38413 3.97884 1.6251 4.42983C1.86606 4.88083 2.21462 5.26537 2.63985 5.54934C2.1467 5.53365 1.66443 5.4004 1.23318 5.16068V5.20068C1.23313 5.91784 1.4812 6.61293 1.9353 7.16801C2.3894 7.72309 3.02156 8.10396 3.72451 8.24601C3.26703 8.36982 2.7874 8.38806 2.32185 8.29934C2.52018 8.91642 2.90651 9.45603 3.42676 9.84263C3.947 10.2292 4.57512 10.4435 5.22318 10.4553C4.12307 11.319 2.76444 11.7874 1.36585 11.7853C1.1181 11.7854 0.870563 11.7709 0.624512 11.742C2.04416 12.6548 3.69674 13.1392 5.38451 13.1373C11.0978 13.1373 14.2212 8.40534 14.2212 4.30134C14.2212 4.16801 14.2178 4.03334 14.2118 3.90001C14.8194 3.46066 15.3438 2.91661 15.7605 2.29334L15.7618 2.29134Z" fill="#6A6A6A"/>
</svg>
