<svg width="35" height="35" viewBox="0 0 35 35" fill="none" xmlns="http://www.w3.org/2000/svg">
<path fill-rule="evenodd" clip-rule="evenodd" d="M33.2051 17.5C33.2051 26.1737 26.1737 33.2051 17.5 33.2051C8.8263 33.2051 1.79487 26.1737 1.79487 17.5C1.79487 8.8263 8.8263 1.79487 17.5 1.79487C26.1737 1.79487 33.2051 8.8263 33.2051 17.5ZM35 17.5C35 27.165 27.165 35 17.5 35C7.83502 35 0 27.165 0 17.5C0 7.83502 7.83502 0 17.5 0C27.165 0 35 7.83502 35 17.5ZM17.9487 10.7693C18.4443 10.7693 18.8461 11.1711 18.8461 11.6667V17.0512H23.7821C24.2778 17.0512 24.6795 17.453 24.6795 17.9487C24.6795 18.4443 24.2778 18.8461 23.7821 18.8461H18.8461V23.7821C18.8461 24.2778 18.4443 24.6795 17.9487 24.6795C17.4531 24.6795 17.0513 24.2778 17.0513 23.7821V18.8461H11.6667C11.1711 18.8461 10.7693 18.4443 10.7693 17.9487C10.7693 17.453 11.1711 17.0512 11.6667 17.0512H17.0513V11.6667C17.0513 11.1711 17.4531 10.7693 17.9487 10.7693Z" fill="#474747"/>
</svg>
