<svg width="23" height="23" viewBox="0 0 23 23" fill="none" xmlns="http://www.w3.org/2000/svg">
<circle cx="11.5" cy="11.5" r="11.5" fill="#E5D32D"/>
<circle cx="11.5" cy="11.5" r="10.5" fill="black"/>
<circle cx="11.5" cy="11.5" r="9.5" fill="#E5D32D"/>
<path d="M15 13.5953C15 12.6715 14.7829 12.2431 14.4263 11.9084C14.2557 11.7477 14.0386 11.587 13.6044 11.3193C13.1237 11.0247 12.643 10.757 12.1467 10.4758C11.4799 10.1143 10.9527 9.83319 10.8131 9.5788C10.7666 9.4851 10.7356 9.33782 10.7356 9.09684C10.7356 8.65499 10.7201 8.15967 11.4179 8.15967C11.7435 8.15967 12.1157 8.19981 12.1932 8.53452C12.2242 8.66842 12.2242 8.70856 12.2242 8.92278V9.61897H14.7364C14.7519 8.89602 14.8139 7.8651 14.2557 7.26264C13.7439 6.68693 12.891 6.62 12.1312 6.56644V5H10.8441V6.56641C10.0843 6.61997 9.26243 6.72711 8.73517 7.27599C8.20794 7.81153 8.14593 8.53449 8.14593 9.2039C8.14593 10.1679 8.36301 10.5829 8.73517 10.931C9.06083 11.2389 9.58807 11.5469 9.68111 11.6004C10.1308 11.8682 10.5805 12.1494 11.0457 12.4171C11.697 12.8054 12.1312 13.033 12.2708 13.3409C12.3483 13.5149 12.3483 13.7827 12.3483 13.8229C12.3483 14.1576 12.3948 14.653 11.4644 14.653C10.9217 14.653 10.7356 14.4387 10.6736 14.2245C10.6115 14.0505 10.627 13.8496 10.627 13.7961V13.1267H8.00636C7.97535 14.4923 8.03739 15.1082 8.65767 15.6303C9.24693 16.1122 9.99126 16.1926 10.2549 16.2194C10.441 16.2461 10.6426 16.2729 10.8441 16.2863V18H12.1312V16.2863C12.9221 16.206 13.6354 16.1123 14.2402 15.6303C14.9225 15.0948 15 14.345 15 13.5953Z" fill="black"/>
</svg>
