<svg width="14" height="14" viewBox="0 0 14 14" fill="none" xmlns="http://www.w3.org/2000/svg">
<path fill-rule="evenodd" clip-rule="evenodd" d="M12.7273 7C12.7273 6.65 13.0136 6.36364 13.3636 6.36364C13.7136 6.36364 14 6.65 14 7C14 10.85 10.85 14 7 14C3.15 14 0 10.85 0 7C0 3.15 3.15 0 7 0C7.35 0 7.63636 0.286364 7.63636 0.636364C7.63636 0.986364 7.35 1.27273 7 1.27273C3.85 1.27273 1.27273 3.85 1.27273 7C1.27273 10.15 3.85 12.7273 7 12.7273C10.15 12.7273 12.7273 10.15 12.7273 7ZM11.0407 2.06819L9.79977 1.90909C9.44977 1.84546 9.19522 1.52728 9.22704 1.17728C9.25886 0.827276 9.57704 0.604549 9.92704 0.636367L11.9952 0.890912C12.5679 0.954549 13.0452 1.43182 13.1089 2.00455L13.3634 4.07273C13.427 4.42273 13.1725 4.74091 12.8225 4.77273H12.727C12.4089 4.77273 12.1225 4.51819 12.0907 4.2L11.9316 2.95909L7.44522 7.44546C7.31795 7.57273 7.15886 7.63637 6.99977 7.63637C6.84068 7.63637 6.68159 7.57273 6.55431 7.44546C6.29977 7.19091 6.29977 6.80909 6.55431 6.55455L11.0407 2.06819Z" fill="#909791"/>
</svg>
