<svg width="550" height="550" viewBox="0 0 550 550" fill="none" xmlns="http://www.w3.org/2000/svg">
<path fill-rule="evenodd" clip-rule="evenodd" d="M470 140.449C470 111.482 446.518 88 417.551 88H131.998C103.032 88 79.5498 111.482 79.5498 140.449V326.932C79.5498 355.899 103.032 379.381 131.998 379.381H155.309C164.964 379.381 172.792 371.553 172.792 361.898C172.792 352.242 164.964 344.415 155.309 344.415H131.998C122.343 344.415 114.515 336.588 114.515 326.932V140.449C114.515 130.793 122.343 122.966 131.998 122.966H417.551C427.207 122.966 435.034 130.793 435.034 140.449V326.932C435.034 336.588 427.207 344.415 417.551 344.415H298.248C286.75 344.415 275.57 348.194 266.429 355.17L165.099 432.5C157.423 438.358 155.95 449.329 161.807 457.005C167.665 464.68 178.636 466.154 186.312 460.296L287.642 382.966C290.689 380.64 294.415 379.381 298.248 379.381H417.551C446.518 379.381 470 355.899 470 326.932V140.449ZM231.067 213.294C231.067 230.996 219.326 245.346 204.843 245.346C190.359 245.346 178.618 230.996 178.618 213.294C178.618 195.593 190.359 181.242 204.843 181.242C219.326 181.242 231.067 195.593 231.067 213.294ZM375.222 187.113C378.415 192.702 376.474 199.822 370.885 203.016L347.801 216.206L370.885 229.397C376.474 232.591 378.415 239.711 375.222 245.3C372.028 250.888 364.908 252.83 359.319 249.636L318.526 226.326C314.895 224.251 312.654 220.389 312.654 216.206C312.654 212.024 314.895 208.162 318.526 206.087L359.319 182.776C364.908 179.583 372.028 181.524 375.222 187.113ZM327.859 281.405C331.681 276.226 330.581 268.929 325.401 265.106C320.222 261.284 312.925 262.384 309.103 267.564C303.436 275.242 294.133 280.312 283.515 280.312C272.896 280.312 263.594 275.242 257.927 267.564C254.105 262.384 246.808 261.284 241.628 265.106C236.449 268.929 235.349 276.226 239.171 281.405C249.132 294.903 265.329 303.623 283.515 303.623C301.7 303.623 317.898 294.903 327.859 281.405Z" fill="#21C143"/>
</svg>
